<?xml version="1.0" encoding="UTF-8"?>
<!DOCTYPE svg PUBLIC "-//W3C//DTD SVG 1.1//EN" "http://www.w3.org/Graphics/SVG/1.1/DTD/svg11.dtd">
<!-- Creator: CorelDRAW X6 -->
<svg xmlns="http://www.w3.org/2000/svg" xml:space="preserve" width="841mm" height="1189mm" version="1.1" style="shape-rendering:geometricPrecision; text-rendering:geometricPrecision; image-rendering:optimizeQuality; fill-rule:evenodd; clip-rule:evenodd"
viewBox="0 0 84100 118900"
 xmlns:xlink="http://www.w3.org/1999/xlink">
 <defs>
  <style type="text/css">
   <![CDATA[
    .fil0 {fill:black}
   ]]>
  </style>
 </defs>
 <g id="Ebene_x0020_1">
  <metadata id="CorelCorpID_0Corel-Layer"/>
  <path class="fil0" d="M59685 94212c-475,-398 -522,-903 -690,-1475 -246,-836 -335,-658 -1151,-988 -185,-75 -1462,-567 -1510,-629 -85,-108 667,-1138 819,-1233 610,675 3427,1438 4314,2134l-1782 2191zm-40510 -15963c40,-3582 930,-7219 2632,-10379 188,-348 370,-710 579,-1046 577,-928 -61,-530 2886,865 362,171 748,360 1117,509 576,232 889,134 853,796 -56,1051 38,2170 -24,3235l-2462 509 774 5356 -6355 155zm38431 -6023c-77,-1041 34,-2209 -15,-3271 -27,-606 349,-547 886,-761 1046,-418 2247,-1096 3215,-1659 603,-350 440,-252 810,344 1974,3179 3189,7632 3177,11369l-6372 -159 776 -5352 -2477 -511zm-37 13009l675 434 -3 1654c539,-29 1155,-3 1703,-3 902,0 698,-134 1302,471 372,372 1484,1387 1717,1736l-387 748 -503 813 -3797 -1744 6 -879c384,-39 926,-9 1330,-8 585,1 606,-109 1063,237 253,193 1297,1061 1494,1116l-84 -201 266 -40c-130,-257 -1362,-1288 -1646,-1489 -426,-302 -823,-207 -1352,-207 -314,0 -1131,-35 -1330,195 112,222 233,-68 224,544 -4,250 10,518 -7,760 428,196 3724,1671 3835,1776l-314 521 -591 -396c-297,-216 -227,-145 -545,-300 -956,-466 -2636,-903 -3275,-1888 4,768 -593,1146 -1140,2032 660,334 1601,665 2327,956 529,213 514,1391 759,1740 121,172 292,276 348,493l-668 640 -2054 1890c-117,-132 -40,-1249 -38,-1500 6,-675 19,-546 -454,-992 -372,-350 -1189,-1053 -1474,-1416l819 -1104c475,178 979,414 1452,613 1288,542 880,313 1101,904 171,-75 -100,-116 192,-46 16,4 181,43 116,31l48 -379c-856,-977 -1841,-1088 -2948,-1589 377,162 -658,1350 -845,1581 300,213 1230,1137 1506,1439 505,552 444,171 444,1069 0,318 39,1238 -14,1497l-619 424c-4137,2938 -8668,4513 -13773,4518 -2859,3 -5130,-460 -7823,-1352 -2219,-736 -4020,-1885 -5951,-3147l-780 -603 -2000 -1791 -771 -797 -1696 -2148c-171,-124 -613,-749 -612,-966l-537 -844 -443 -776c-35,-199 -878,-1907 -1038,-2284 -942,-2220 -1740,-6110 -1601,-8417 894,-66 2517,92 3490,127 400,14 1481,98 1802,42 321,-55 1075,-481 1323,-468 365,465 980,1698 1309,2278 421,741 851,1531 1293,2255 398,650 206,2500 206,3327 0,1781 -191,1362 815,2745 999,1374 2013,2749 2995,4135 497,701 2556,3712 3014,4083 -1048,-3441 -2190,-6886 -3283,-10317 -627,-1969 -626,-1502 239,-2162 256,-196 1809,-1388 1961,-1445 531,-202 2040,538 2857,206 777,-316 1719,-551 2459,-902 -482,-758 -2179,-2290 -2883,-3101 -401,-460 -1434,-749 -2024,-966 -398,-146 -2225,-184 -2776,-219 -1082,-69 -1171,-347 -2025,-967 -342,-249 -717,-368 -703,-799 75,-2330 128,-4989 131,-7273l4196 1025c-21,713 -627,3560 -229,3592 314,26 330,-1433 361,-1716 65,-609 155,-1195 230,-1799 1363,227 2559,451 3949,558 442,34 4167,253 4198,262l17 1489c85,56 578,64 654,4l30 -1513c454,-91 1648,-61 2185,-84 1023,-44 3058,-238 4064,-395 563,-87 1349,-271 1878,-314 93,619 175,1243 240,1866 33,320 63,646 103,964 31,254 -23,787 339,633 202,-279 -295,-2988 -314,-3506l4185 -1081c22,1958 65,3917 103,5874 37,1895 269,1544 -729,2253 -907,645 -867,857 -2026,930 -549,35 -2376,71 -2769,224 -672,261 -1471,457 -1980,974 -663,673 -2415,2405 -2872,3085 745,353 1704,602 2492,917 762,304 2360,-437 2855,-205 324,153 1565,1164 1955,1451 857,631 825,189 206,2159 -541,1721 -1099,3437 -1640,5157 -288,917 -1514,4567 -1619,5167 320,-358 2609,-3550 3017,-4138 944,-1364 1984,-2783 2979,-4113 1021,-1365 808,-1022 809,-2775 1,-877 -196,-2610 223,-3323 407,-693 2347,-4208 2592,-4508 351,38 962,423 1328,479 315,47 4636,-160 5286,-166 2,2536 -606,6017 -1613,8428 -312,744 -778,1571 -1044,2282 -230,-101 -1485,-1448 -1769,-1730 -599,-598 -340,-494 -1235,-493 -312,0 -1520,44 -1743,-16l-2 -1581 -704 -422zm-14801 -19860c0,-381 -3,-763 1,-1144 8,-1057 -440,-465 2519,-912 652,-99 1238,-246 1874,-416 262,-70 1535,-616 1667,-419 471,700 1972,6331 1919,7148 -668,455 -6835,774 -7982,810l2 -5067zm-8645 4285c-119,-870 1240,-5496 1636,-6531 368,-964 190,-740 1054,-479 1319,397 2016,556 3373,761 321,49 1747,95 1903,162l2 6859c-2002,135 -5949,-356 -7968,-772zm17066 -91c-427,-1757 -629,-3468 -1156,-5251 -124,-418 -249,-830 -382,-1245 -117,-368 -484,-898 -83,-1050 600,-228 1529,-750 2072,-1111 362,-241 642,-620 919,-275 529,657 1651,1880 2238,2533 424,473 469,404 572,1054 70,449 147,911 228,1358 181,997 -175,2789 -135,2945l-4273 1042zm-17528 -13c-334,51 -2896,-658 -3392,-807 -1063,-318 -844,-46 -952,-1190 -60,-641 -182,-1256 -72,-1889 365,-2093 -25,-1593 1258,-2992 454,-495 1592,-1940 2002,-2253 492,291 907,625 1441,916 552,302 993,520 1569,790 -3,116 -929,3086 -1052,3587 -120,490 -746,3739 -802,3838zm9147 -6847c-32,-52 -119,-5604 -49,-5911 55,-243 1085,-185 1338,-194 700,-24 549,-108 1105,314 504,382 1035,1025 1435,1520 627,776 1212,1900 1658,2807 266,539 145,411 -457,629 -768,277 -4461,1116 -5030,835zm-718 32c-1125,16 -2805,-220 -3897,-516 -497,-134 -1234,-316 -1689,-532 -245,-116 430,-1184 547,-1408 443,-842 1150,-1942 1821,-2610 322,-321 772,-830 1171,-1045 137,-74 1825,-11 2047,36l0 6075zm10598 -2522c113,-164 956,-813 1199,-1049 674,-653 378,-600 1213,-69 769,488 1814,1293 2492,1903 804,724 1516,1340 2241,2154 359,403 1704,2074 1881,2484 -252,290 -3791,2086 -4122,2033l-20 -2654 -4884 -4802zm-29552 5416c211,-461 1503,-2020 1893,-2484 996,-1186 3407,-3212 4735,-4056 796,-506 584,-605 1234,97 292,315 993,778 1172,1017 -937,724 -3482,3451 -4686,4622 -363,352 -228,799 -231,1320 -1,330 41,1266 -15,1522 -275,40 -3900,-1775 -4102,-2038zm23016 -9179c190,-86 1241,-183 1536,-228 788,-121 692,-301 1226,303 781,885 1702,1968 2497,2821 521,558 588,439 -53,834 -712,438 -1522,941 -2305,1224 -135,-169 -1011,-2198 -1273,-2672 -240,-436 -487,-815 -778,-1218 -134,-186 -837,-962 -850,-1064zm-10339 4949c-446,-71 -1877,-950 -2328,-1230 -658,-408 -524,-272 -16,-848 276,-313 556,-629 837,-936 562,-613 1106,-1262 1659,-1888 501,-565 505,-388 1233,-263 322,56 1328,133 1540,239 -1044,1167 -1688,2137 -2333,3570 -128,285 -462,1167 -592,1356zm17936 -3086c-260,345 -956,850 -1340,1146 -362,279 -313,138 -647,-204 -203,-207 -411,-403 -612,-608 -399,-407 -2292,-2158 -2449,-2434 930,204 4396,1533 5048,2100zm-22647 0c784,-592 4066,-1922 5061,-2093l-3498 3433 -1563 -1340zm-9083 33027c263,234 480,841 697,1065 246,252 504,661 748,955 510,615 1017,1250 1581,1813 558,558 1133,1158 1744,1651 269,218 1811,1399 1888,1551 7992,5747 19518,5683 27517,-6 32,-68 3114,-2586 3619,-3203 489,-596 1070,-1210 1582,-1818 251,-297 1297,-1869 1427,-1944l666 -1108c528,318 430,429 743,671 164,127 931,137 1180,153 1075,70 7187,654 7371,502 -56,-259 -1860,-412 -2207,-463 -930,-137 -6861,-931 -6933,-1038 -39,-129 962,-2126 1090,-2454 736,-1895 1275,-3614 1540,-5671 72,-560 201,-3055 285,-3269l7378 -236 -7379 -224c-96,-907 -109,-1867 -237,-2755 -371,-2563 -948,-4583 -2018,-6963 -1167,-2594 -2897,-5052 -4917,-7053 -9366,-9277 -24592,-9267 -33941,31 -3047,3031 -5525,7308 -6438,11520 -179,828 -357,1678 -477,2516 -128,887 -117,1786 -252,2700l-7373 163 7410 288c55,146 211,2828 276,3335 251,1976 826,3804 1538,5627 140,358 1108,2291 1079,2455 -182,109 -5899,866 -6945,1032 -361,57 -2122,117 -2196,436 182,218 4329,-244 4919,-288 826,-60 1650,-132 2475,-192 237,-17 1027,-37 1178,-152 206,-159 467,-590 704,-641l678 1014zm-11555 -40657l63922 -13 1 55842 -63922 -2 -1 -55827zm-659 56489l65249 -13 -7 -57154 -65240 -1 -2 57168zm26724 -15172c259,-330 298,-2749 609,-3076 120,-126 481,-568 597,-643l2862 3523c-233,182 -1005,552 -1310,711 -630,329 -1074,182 -1793,202l-13 753 3982 16 29 893 1849 20 27 -893 3993 -15 15 -769c-744,-88 -1100,172 -1797,-204 -402,-217 -964,-473 -1312,-707l2853 -3532c1102,779 818,2184 1148,2699 61,-368 51,-2561 -42,-2880 -200,-689 -416,-1640 -651,-2267l-2143 35 1263 1763c-46,125 -3344,3445 -3494,3489 -285,83 -2048,83 -2228,-88 -717,-680 -1867,-2302 -2647,-3157 -279,-305 -78,-364 147,-679 190,-268 902,-1116 896,-1376 -378,-1 -1995,-187 -2133,141 -177,421 -368,1256 -515,1737 -337,1103 -232,3101 -192,4304zm1979 4864c2719,147 5127,129 7843,1 -85,493 -252,1070 -375,1564 -175,698 -71,813 -588,1333 -187,189 -791,887 -999,925l-3876 5c-229,-30 -813,-718 -1009,-916 -533,-537 -440,-573 -616,-1307 -126,-525 -282,-1078 -380,-1605zm-3038 482c-4,146 2149,2853 2419,3009 536,310 1229,907 1847,898l5436 1c528,4 1349,-635 1825,-918 246,-146 2392,-2843 2405,-2976 -201,-139 -1526,-283 -1865,-336 -827,-130 -934,-23 -1614,-528 -360,-268 -899,-810 -1342,-808l-4329 0c-425,3 -983,565 -1332,819 -676,493 -807,392 -1622,521 -342,54 -1610,196 -1828,318zm-13648 -7890l443 776c93,-260 1387,-1125 1696,-1371 541,-428 391,-409 1112,-408 354,0 1209,-45 1502,15l4 862 -3777 1746c-1,217 441,842 612,966 99,-246 1811,-912 2170,-1077l1638 -765c335,-151 323,-54 426,-364l929 1256c-542,306 -1715,719 -2319,954 -640,249 -378,2003 -1148,2144l771 797c72,-256 240,-225 332,-471 221,-585 252,-1604 644,-1760 504,-201 1824,-848 2239,-929l804 1095c-178,253 -1186,1145 -1483,1430 -481,462 -459,282 -454,978 3,307 137,1306 -82,1448l780 603 6 -2523 2541 -1937c-157,-392 -2011,-2816 -2386,-3337 -383,-533 -1046,-1154 -1038,-1827 5,-447 68,-2609 -67,-2825l-1133 711 -4 1584c-198,63 -1432,20 -1729,20 -881,-2 -655,-114 -1248,480 -285,287 -1535,1648 -1781,1729zm1588 26229c323,-561 -263,-3913 227,-4167 422,-218 337,-265 575,154l1183 2066c704,1212 461,1078 1156,1074 1145,-8 932,231 1470,-722 189,-334 1470,-2658 1612,-2760l527 303 1 4052c96,68 920,72 1026,11l-22 -4663c-114,-123 -726,-448 -916,-561 -380,-224 -755,-315 -1206,-198 -489,449 -1790,3515 -2234,3514 -454,-1 -1735,-3066 -2233,-3516 -465,-117 -816,-26 -1201,205 -180,109 -783,433 -908,557l2 4660c113,67 766,28 941,-9zm9871 9c154,-289 -5,-3224 43,-3926 12,-183 492,-586 666,-275 228,408 1757,3179 1917,3318l1544 -18 2039 -3465 501 297 0 4057c102,85 812,37 988,36l27 -4661c-21,-70 -1484,-1105 -2101,-782 -519,457 -1740,3506 -2233,3515 -316,6 -495,-546 -636,-793 -234,-412 -1489,-2673 -1595,-2728 -528,-107 -797,-26 -1228,220 -189,108 -773,421 -913,550l2 4650c106,69 805,34 979,5zm22927 -18332l619 -424c53,-259 14,-1179 14,-1497 0,-898 61,-517 -444,-1069 -276,-302 -1206,-1226 -1506,-1439 187,-231 1222,-1419 845,-1581 1107,501 2092,612 2948,1589l-48 379c65,12 -100,-27 -116,-31 -292,-70 -21,-29 -192,46 58,294 159,612 238,902 151,560 187,332 410,703l668 -640c-56,-217 -227,-321 -348,-493 -245,-349 -230,-1527 -759,-1740 -726,-291 -1667,-622 -2327,-956 547,-886 1144,-1264 1140,-2032 639,985 2319,1422 3275,1888 318,155 248,84 545,300l591 396 314 -521c-111,-105 -3407,-1580 -3835,-1776 17,-242 3,-510 7,-760 9,-612 -112,-322 -224,-544 199,-230 1016,-195 1330,-195 529,0 926,-95 1352,207 284,201 1516,1232 1646,1489l-266 40 84 201c150,226 404,204 407,465l387 -748c-233,-349 -1345,-1364 -1717,-1736 -604,-605 -400,-471 -1302,-471 -548,0 -1164,-26 -1703,3l3 -1654 -675 -434 -422 -284c-128,193 -68,2438 -64,2812 6,663 -664,1294 -1042,1820 -361,501 -2247,2982 -2365,3315l2525 1964 7 2506zm-44476 -54181c-170,-974 297,-851 1040,-851 530,0 3695,37 3919,1 271,-44 234,-605 182,-825 -62,-262 -593,-163 -813,-164 -1305,-3 -2611,2 -3916,1 -830,0 -767,70 -1333,636 -183,183 -170,1552 -91,1837 161,148 711,437 942,571 520,301 701,203 1295,203 926,0 2033,-55 2936,4l115 747c-642,598 -1649,405 -2460,404 -391,0 -2626,-59 -2804,48l-13 929c236,130 3021,51 3519,52 522,2 1191,125 1647,-150 270,-163 922,-487 1112,-660 144,-462 65,-1422 -176,-1835 -474,-810 -479,-565 -1475,-565 -738,1 -3222,258 -3626,-383zm62693 315c93,103 910,545 1092,646 313,174 1244,92 1641,93 1293,0 1729,-181 2796,663 -100,118 -765,494 -945,600 -292,172 -1079,88 -1445,88 -449,0 -2888,-70 -3109,50l-3 899c207,91 3251,40 3740,39 901,0 783,97 1554,-339 236,-133 1068,-569 1209,-714l26 -1210c-141,-146 -910,-534 -1130,-662 -672,-389 -554,-401 -1363,-401 -591,0 -1182,1 -1773,1 -327,0 -1283,-30 -1326,-490 329,-910 4725,-121 5549,-467 118,-250 152,-932 -191,-955 -519,-33 -2976,6 -3626,6 -1006,1 -1178,-155 -2059,354 -278,160 -640,253 -660,578 -16,249 -18,995 23,1221zm-18231 54873l28 1316c671,381 8252,512 8416,226 -73,-289 -1548,-256 -1864,-285 -866,-83 -5447,-407 -5661,-699l2939 -2907c235,78 556,634 880,692l7321 481c482,30 964,67 1445,99 230,15 1295,208 1271,-94 -60,-118 -7260,-714 -8326,-805 -680,-58 -627,58 -1102,-406 -160,-156 -678,-614 -750,-765 332,-550 3163,-2918 3185,-3272l-1154 -546c-130,75 -1176,1647 -1427,1944 -512,608 -1093,1222 -1582,1818 -505,617 -3587,3135 -3619,3203zm-4485 -52628c107,146 835,478 1044,591 630,343 716,243 1428,242 462,-1 3067,83 3282,-53l45 -881c-244,-126 -2229,-55 -2625,-54 -861,1 -1481,149 -2167,-472l-4 -868 4788 -61c1,-1 33,-834 -24,-936l-4759 -2 -7 -510c436,-621 1506,-525 2136,-525 397,0 2408,65 2617,-50 76,-139 62,-493 56,-665 -10,-333 -165,-282 -455,-275 -915,19 -3665,-120 -4103,133 -1551,894 -1276,547 -1274,1552 1,517 -68,2483 22,2834zm-23032 52634c-77,-152 -1619,-1333 -1888,-1551 -611,-493 -1186,-1093 -1744,-1651 -564,-563 -1071,-1198 -1581,-1813 -244,-294 -502,-703 -748,-955 -217,-224 -434,-831 -697,-1065 -124,379 -948,308 -1132,665l3149 3196c-90,154 -623,639 -777,790 -490,480 -417,334 -1110,402 -1129,111 -8154,675 -8266,828 86,327 2384,0 2778,-28 922,-65 6906,-417 7282,-482 338,-59 609,-624 869,-696l2943 2912c-188,244 -3243,492 -3719,528l-2954 260c-232,19 -850,-49 -851,231 162,135 7771,175 8409,-269l37 -1302zm9148 -52633c95,117 855,491 1042,586 676,343 664,246 1425,247 466,0 3068,48 3299,-35l-6 -905c-214,-114 -2193,-49 -2591,-49 -1010,0 -1337,156 -2184,-466l-14 -877 4828 -45c2,-177 54,-842 -31,-950l-4783 -1 -13 -525c736,-656 1245,-509 2160,-510 399,0 2413,52 2629,-37 85,-155 63,-491 55,-677 -14,-340 -164,-281 -467,-276 -933,16 -3628,-122 -4093,140 -1571,883 -1272,572 -1269,1545 1,687 -85,2254 13,2835zm-22384 68938c-488,-509 -426,-1045 -426,-1691 0,-649 -62,-1180 426,-1692 481,-93 2188,-12 2798,-13 742,0 622,-160 969,439 261,451 167,748 168,1266 1,486 85,819 -155,1241 -347,608 -205,463 -945,463 -628,-1 -2333,81 -2835,-13zm4939 -347c117,-296 69,-2590 -88,-2841 -725,-1155 -306,-1244 -1720,-1241 -998,1 -1995,0 -2993,0 -740,0 -693,-169 -1038,444 -120,213 -460,762 -525,954 -116,341 -81,2564 87,2853 712,1219 286,1222 1735,1223 997,0 1995,2 2992,0 755,-2 641,152 1009,-471 120,-203 472,-744 541,-921zm30126 1157c147,81 972,197 990,-241 17,-409 -7,-882 -7,-1300 0,-351 -75,-2367 65,-2517 306,-328 512,-264 719,69l2574 3926c157,178 870,129 1076,8 1407,-830 1154,-563 1155,-1448 1,-431 0,-862 0,-1293 0,-382 60,-2355 -51,-2550l0 -45c-166,0 -886,-43 -977,35l8 4011 -579 305 -2891 -4339c-554,-100 -786,-31 -1236,232 -214,124 -754,387 -898,557l52 4590zm-5954 -73333c198,118 2390,57 2796,57 832,0 1739,-125 2351,510l1 2392c-647,559 -951,507 -1761,495 -709,-10 -1539,26 -2231,-30l-48 -2326 -956 36c-102,279 -36,2226 -40,2683 -7,759 5,593 753,612 459,12 918,20 1378,26 573,8 2210,180 2629,-76 281,-172 574,-343 861,-506 581,-329 449,-253 449,-943 -1,-913 -5,-1826 2,-2738 3,-408 -341,-473 -690,-663 -255,-139 -688,-439 -959,-461 -914,-73 -2973,15 -4142,-3 -291,-5 -436,-49 -444,277 -4,169 -20,517 51,658zm-35005 -753c-279,-122 -6346,-109 -6464,-25 -109,78 -108,653 -76,790 61,262 467,163 679,163 747,-2 4685,-47 4871,26l-32 1177c-404,197 -5197,-129 -5443,103 -63,139 700,2850 846,3091l935 -8 59 -2130 4603 -3 22 -3184zm34324 68892c-138,-73 -952,-160 -994,144 -35,253 2,888 2,1182 0,596 -71,1882 5,2395 26,172 774,1446 905,1493 76,28 4561,58 4696,-18 124,-70 845,-1345 860,-1505 13,-134 36,-3417 -1,-3581 -59,-256 -884,-177 -989,-104 -114,194 -45,1924 -45,2281 2,906 129,1160 -421,1911l-3557 -5c-535,-952 -416,-777 -415,-1906 0,-365 63,-2081 -46,-2287zm-35978 1427c537,-664 2041,-436 2810,-436 542,0 1088,-5 1629,5 413,7 389,-40 386,-444 -2,-285 96,-579 -237,-604 -948,-71 -2265,6 -3255,7 -729,0 -743,-110 -1373,256 -190,111 -880,491 -1005,609l33 3555c123,136 824,509 1052,647 536,323 817,211 1441,211 419,1 3106,58 3270,-41l21 -951c-926,-232 -4535,309 -4789,-494l17 -2320zm17046 -65985c116,146 831,501 1041,622 558,321 821,214 1457,215 440,1 3103,49 3296,-40l3 -908c-218,-93 -2200,-42 -2597,-42 -957,1 -1422,171 -2173,-463l-9 -2324c745,-633 1239,-466 2182,-466 379,0 2437,65 2615,-62 64,-138 50,-494 44,-659 -10,-322 -157,-275 -441,-271 -770,10 -3850,-76 -4143,84 -300,164 -596,343 -897,507 -559,304 -390,353 -389,1013 0,679 -86,2218 11,2794zm43024 8c97,127 831,503 1021,608 596,328 774,221 1451,220 443,0 3092,64 3283,-52l44 -883c-240,-127 -2264,-53 -2662,-54 -978,0 -1391,174 -2164,-467l-6 -2318c689,-628 1277,-468 2170,-468 388,0 2428,69 2621,-55 81,-153 55,-450 51,-630 -6,-346 -96,-312 -417,-308 -788,11 -3821,-78 -4138,92 -1580,845 -1275,667 -1274,1513 0,645 -81,2272 20,2802zm4493 57465c-324,-190 -3056,80 -3574,-50 -520,-131 298,-730 849,-723 228,2 2564,35 2678,-29 141,-79 117,-676 58,-762 -104,-153 -1442,-76 -1700,-76 -325,1 -1543,-52 -1760,52 -141,67 -1016,611 -1102,686l30 2875c109,126 636,384 837,492 469,253 580,175 1109,177 409,1 2334,63 2570,-44l0 -785c-232,-110 -1620,-44 -1979,-44 -808,1 -1013,115 -1702,-342l13 -612 3676 -5c80,-116 34,-641 -3,-810zm-48172 -61807l-935 -1c-150,261 37,1100 -69,1374 -60,153 -711,451 -890,549 -591,325 -518,233 -1196,237 -384,2 -988,70 -1309,-122 -1314,-785 -1069,-211 -1089,-1796 -6,-503 -943,-342 -1022,-161 -54,125 -18,1191 -24,1423 -17,675 51,547 591,860 304,176 611,350 917,523 573,324 435,306 1124,302 477,-2 965,-7 1441,1 729,13 1379,-509 1995,-872 606,-357 514,-174 512,-926 0,-272 56,-1212 -46,-1391zm48130 68753c-129,-86 -754,-109 -886,-33 -170,96 -99,629 -100,834 -4,750 -215,1109 425,1464 1400,777 1126,922 2830,924 1687,1 1456,-85 2847,-907 671,-396 445,-625 443,-1445 0,-195 70,-773 -98,-870 -134,-77 -719,-54 -850,33 -101,182 -46,859 -41,1103 9,451 -170,394 -516,595 -874,510 -710,458 -1748,459 -1054,1 -895,63 -1778,-466 -367,-220 -502,-134 -485,-627 8,-232 53,-890 -43,-1064zm-7817 -63631l6 -889c-1081,-302 -4163,361 -4501,-452 -107,-512 87,-3727 -58,-3893 -91,-104 -808,-106 -917,-19 -130,104 -70,745 -69,932 1,665 2,1330 2,1995 -1,388 -142,1577 195,1762 395,217 941,617 1388,615 509,-2 3752,57 3954,-51zm-32114 -5267c-141,-64 -555,-53 -724,-44 -323,16 -262,200 -257,471l5 3031c0,371 -161,1061 215,1257 1268,660 887,601 2401,601 424,-1 2751,58 2958,-46l1 -892c-638,-377 -3954,419 -4544,-454l-55 -3924zm35040 69964c425,-107 3031,68 3199,-51 114,-81 121,-828 8,-917 -99,-79 -3952,-93 -4253,-4l-2 5219 983 57 65 -4304zm-2223 -974c-189,-95 -4139,-47 -4202,15 -130,129 -115,848 54,924 105,47 872,21 1045,21 599,0 1584,-63 2135,8l1 4281 985 24 -18 -5273zm1004 -7264c-187,53 -1478,15 -1779,15 -1467,0 -1388,-126 -1386,459 1,486 75,417 535,411 427,-4 2499,-28 2641,19l44 1954c148,1 694,41 785,-29l0 -4197c-83,-64 -734,-70 -817,-8l-23 1376zm-7863 -544c573,-8 1151,-1 1725,-1 202,0 678,77 812,-54 167,-165 -1,-804 -1,-814l-3376 4 -47 4225 826 47 61 -3407zm-1733 -808c-117,-104 -3257,-122 -3373,-17 -94,85 -108,699 18,787 123,86 2110,13 2533,41l3 3360 826 42 -7 -4213zm3606 8624c-118,-58 -753,-78 -871,-24 -176,81 -106,644 -106,835 0,604 1,1207 1,1810 0,604 0,1207 -1,1811 0,213 -101,733 136,819 245,90 854,-35 893,-35l-52 -5216zm5330 -63779c136,81 719,102 852,25 163,-94 96,-641 95,-825l0 -3621c0,-179 64,-755 -84,-839 -188,-106 -844,12 -907,12l44 5248zm-3153 55133c-123,-54 -596,-73 -715,-15 -165,80 -101,476 -101,643l-1 2992c-1,180 -80,544 132,613 236,76 640,-29 736,-29l-51 -4204zm13532 12919c-208,-81 -1297,-36 -1599,-37 -831,0 -1050,-245 -1056,566 -5,709 451,473 1130,473 288,0 1337,59 1526,-53l-1 -949zm-53682 -68744c-190,-88 -1300,-42 -1590,-43 -835,0 -1056,-245 -1064,564 -7,703 467,468 1138,470 287,0 1331,68 1518,-58l-2 -933z"/>
 </g>
</svg>
