/* XPM */
static char * moremore_xpm[] = {
"15 15 16 1",
" 	c #01E0F2",
".	c #06C3D2",
"+	c #66F4FF",
"@	c None",
"#	c #000000",
"$	c #800080",
"%	c #008080",
"&	c #C0C0C0",
"*	c #C0DCC0",
"=	c #A6CAF0",
"-	c #040404",
";	c #080808",
">	c #0C0C0C",
",	c #111111",
"'	c #161616",
")	c #1C1C1C",
"@@@@@@@@@@@@@@@",
"@@@@@@@@@@@@@@@",
"@@@@@@@@@@@@@@@",
"@@@@@--@--@@@@@",
"@@@@@-+--+-@@@@",
"@@---- +- +-@@@",
"@-++++  +- +-@@",
"@-.      .- .-@",
"@-....  .- .-@@",
"@@---- .- .-@@@",
"@@@@@-.--.-@@@@",
"@@@@@--@--@@@@@",
"@@@@@@@@@@@@@@@",
"@@@@@@@@@@@@@@@",
"@@@@@@@@@@@@@@@"};
