/* XPM */
static char * newmachine_xpm[] = {
"16 17 11 1",
".	c None",
"+	c #A3A49B",
"@	c #686C69",
"#	c #67F4FF",
"$	c #0ADAE8",
"%	c #40494A",
"&	c #65511E",
"*	c #000000",
"=	c #DDD6A8",
"-	c #C09235",
";	c #B9BF97",
"................",
"................",
"..+++++@........",
"..+#$$$@........",
"..+#$#$@........",
"..+$#$$%........",
"..+@@@&%.**.....",
"...+.+***==***..",
"..+.+.*==@-==*..",
".+@@@@@*;..;*...",
".@+@+@+*;..;*...",
"......*==@-;=*..",
"......***==***..",
".........**.....",
"................",
"................",
"................"};
