/* XPM */
static char * openeditor_xpm[] = {
"18 17 11 1",
".	c None",
"+	c #000000",
"@	c #FDFDFD",
"#	c #E9EBD7",
"$	c #DDD6A8",
"%	c #B9BF97",
"&	c #A3A49B",
"*	c #40494A",
"=	c #686C69",
"-	c #00FF00",
";	c #D50606",
"..................",
".........++++.....",
"........+@##+.....",
"........+##.+.....",
".....+++++++++++..",
"....+$$$$$$$$$$$+.",
"...+$%%%%%%%%%.++.",
"...+&&&&&&&&&&+%+.",
"..+***********+%+.",
".++##+#+##+#+#++..",
".+##+#+##+#+##+...",
".+###########+....",
"..+++++++++++.....",
"....=.=.=.........",
"..-==.;.;.........",
"..................",
".................."};
