/* XPM */
static char *playstart_flat[]={
"17 17 3 1",
"# c #000000",
"a c #00ffff",
". c #c5c2c5",
".................",
"...##...##.......",
"..#aa#.#aa#......",
"..#aa#.#aaa#.....",
"..#aa#.#aaaa#....",
"..#aa#.#aaaaa#...",
"..#aa#.#aaaaaa#..",
"..#aa#.#aaaaaaa#.",
"..#aa#.#aaaaaaa#.",
"..#aa#.#aaaaaa#..",
"..#aa#.#aaaaa#...",
"..#aa#.#aaaa#....",
"..#aa#.#aaa#.....",
"..#aa#.#aa#......",
"...##...##.......",
".................",
"................."};
