/* XPM */
static char * recordwav_xpm[] = {
"18 17 6 1",
".	c None",
"+	c #000000",
"@	c #D50606",
"#	c #E9EBD7",
"$	c #FDFDFD",
"%	c #0ADAE8",
"..................",
".......++++.......",
".....++@@@@++.....",
"....+@@@@@@@@+....",
"....+@@@@@@@@+....",
"...+@@@@@@@@@@+...",
"...+@@@@@@@@@@+...",
"...++++++++++++...",
".++##+#+##+#+#+++.",
".+##+#+##+#+##+$$.",
".+###########+$$$.",
"..+++++++++++$$$$.",
".....+%%%%%%%%%%%.",
".....+$$$$$$%%%%%.",
".....+$$$$$$%%%%$.",
".....+$$$$$$$$%$$.",
".....++++++++++++."};
