/* XPM */
static char *release_xpm[]={
"17 17 5 1",
"# c #000000",
"a c #00ffff",
"b c #838183",
". c #c5c2c5",
"c c #ffffff",
".................",
"....#########....",
"...#aaaaaaaaa#...",
"...#aaaaaaaaa#...",
"...#aaaa#aaaa#...",
"...#aaaab#aaa#...",
"...#aaaa.c#aa#...",
"...#aaab.cc####..",
"...#aa#..c#aa#.#.",
"...#a#aab#aaa#..#",
"....####b####b..#",
".....#......#cb.#",
"......#....#ccb#.",
".......####cccb..",
"...........#ccb..",
"............#cb..",
".............b..."};
