/* XPM */
static char * autostop_xpm[] = {
"21 21 125 2",
"  	c None",
". 	c #D4D0C8",
"+ 	c #C9C6BE",
"@ 	c #A9A6A2",
"# 	c #91908D",
"$ 	c #898887",
"% 	c #9E9D9A",
"& 	c #B7B5AE",
"* 	c #D0CDC5",
"= 	c #CAC8C2",
"- 	c #989692",
"; 	c #828281",
"> 	c #AEAEAD",
", 	c #D0CFCD",
"' 	c #DFDEDC",
") 	c #A5A4A1",
"! 	c #878683",
"~ 	c #BDBAB4",
"{ 	c #BAB7B1",
"] 	c #757573",
"^ 	c #B5B5B3",
"/ 	c #F5F4F1",
"( 	c #F8F7F4",
"_ 	c #D0D0CE",
": 	c #6C6C6C",
"< 	c #F3F2EE",
"[ 	c #F1F0EC",
"} 	c #F0EFEB",
"| 	c #8E8D8B",
"1 	c #C6C3BC",
"2 	c #EEEDE8",
"3 	c #ECEAE6",
"4 	c #EBEAE6",
"5 	c #9A9996",
"6 	c #B5B2AE",
"7 	c #EBE9E3",
"8 	c #E9E7E2",
"9 	c #235864",
"0 	c #226874",
"a 	c #226E7A",
"b 	c #000000",
"c 	c #178A95",
"d 	c #14A0AC",
"e 	c #16929E",
"f 	c #101418",
"g 	c #EFEDE6",
"h 	c #EAE7E0",
"i 	c #E6E4DB",
"j 	c #E3E1D9",
"k 	c #DDD6A8",
"l 	c #188894",
"m 	c #181D23",
"n 	c #EDEAE2",
"o 	c #D2D0CB",
"p 	c #959391",
"q 	c #ABAAA5",
"r 	c #E9E6DC",
"s 	c #E1DFD6",
"t 	c #DFDCD3",
"u 	c #DCD9CF",
"v 	c #686C69",
"w 	c #C09235",
"x 	c #15919C",
"y 	c #0F1217",
"z 	c #E4E1D7",
"A 	c #8D8F8F",
"B 	c #DAD6CD",
"C 	c #D6D1C8",
"D 	c #D5D0C6",
"E 	c #67F4FF",
"F 	c #B9BF97",
"G 	c #12A1AD",
"H 	c #D1CEC2",
"I 	c #D7D2C8",
"J 	c #D0CBC1",
"K 	c #CBC7BC",
"L 	c #CAC5BA",
"M 	c #0ADAE8",
"N 	c #12ACB9",
"O 	c #020304",
"P 	c #B3B1AB",
"Q 	c #B1AEA8",
"R 	c #7E7D7C",
"S 	c #C7C4B8",
"T 	c #C2BDB3",
"U 	c #B5B2AA",
"V 	c #CECABF",
"W 	c #C5C1B7",
"X 	c #BFBBB1",
"Y 	c #1599A6",
"Z 	c #030404",
"` 	c #B8B4AB",
" .	c #ABA8A1",
"..	c #98968E",
"+.	c #BAB7AC",
"@.	c #ADAAA5",
"#.	c #16919D",
"$.	c #10B6C3",
"%.	c #A3A09A",
"&.	c #BDB9AF",
"*.	c #96958A",
"=.	c #A9A69D",
"-.	c #9D9A95",
";.	c #97958E",
">.	c #939289",
",.	c #918F8A",
"'.	c #797A7A",
").	c #787776",
"!.	c #AEACA1",
"~.	c #9F9C92",
"{.	c #949289",
"].	c #8C8B85",
"^.	c #86847E",
"/.	c #A4A395",
"(.	c #B5B4A4",
"_.	c #9A9991",
":.	c #939386",
"<.	c #A9A899",
"[.	c #9B9A8C",
"}.	c #8F8E86",
"|.	c #88887F",
"1.	c #8B8983",
"2.	c #A0A090",
"3.	c #919084",
"4.	c #C1BEB8",
". . . . . . + @ # $ $ $ % & * . . . . . . ",
". . . . = - ; > , ' ' ' = ) ! ~ . . . . . ",
". . . { ] ^ / / / / / / / ( _ % % * . . . ",
". . { : = < [ } } } } [ [ < < / ^ | * . . ",
". 1 ] = } 2 3 4 3 4 4 3 2 2 2 } < ^ 5 . . ",
". # 6 2 7 8 9 0 a b b c d e c f 2 [ ) { . ",
"1 ; g h i j b b b k k b b b l m h n o p . ",
") q r s t u b k k v w k k b x y z i n A = ",
"| + t B C D e b k k E F b d G b B t z q { ",
"; H I J K L e b k k M F b b N O J D u P Q ",
"R H J S T T b k k b b b k k b b b L H U q ",
"; S V W X X b b b b k k v w k k b W H q Q ",
"| & K X & U e Y l Z b k k M F b ` T V % { ",
" ...L +.Q @.d #.Y $.b k k M F b Q X K ; * ",
"+ : T `  .%.b b b b k k v w F k b &. .- . ",
". 5 *.+.=.-.;.>.,.b b b k k b b b +.'.1 . ",
". * )...!.~.{.].! ! ^.^.b b ;./.(._.) . . ",
". . 1 ] :.<.[.}.|.^.^.|.1.{.~./.}.5 . . . ",
". . . + R |.2.2.*.:.3.:.[./.*.'.6 . . . . ",
". . . . . @ ] ] |.:.:.3.|.] # = . . . . . ",
". . . . . . . 4.@ p p % Q = . . . . . . . "};
