/* XPM */
static char * recordnotes_xpm[] = {
"17 17 3 1",
".	c None",
"+	c #000000",
"@	c #D50606",
".................",
"......+++++......",
"....++@@@@@++....",
"...+@@@@@@@@@+...",
"..+@@@@@@@@@@@+..",
"..+@@@@@@@@@@@+..",
".+@@@@@@@@@@@@@+.",
".+@@@@@@@@@@@@@+.",
".+@@@@@@@@@@@@@+.",
".+@@@@@@@@@@@@@+.",
".+@@@@@@@@@@@@@+.",
"..+@@@@@@@@@@@+..",
"..+@@@@@@@@@@@+..",
"...+@@@@@@@@@+...",
"....++@@@@@++....",
"......+++++......",
"................."};
