/* XPM */
static char * twk_xpm[] = {
"115 30 258 2",
"  	c None",
". 	c #B5BDCE",
"+ 	c #BDC6CE",
"@ 	c #BDC6D6",
"# 	c #ADB5C6",
"$ 	c #A5ADC6",
"% 	c #9CADBD",
"& 	c #9CA5BD",
"* 	c #94A5B5",
"= 	c #949CB5",
"- 	c #94A5BD",
"; 	c #8494AD",
"> 	c #717F9E",
", 	c #A5ADBD",
"' 	c #7B84A5",
") 	c #6F7B94",
"! 	c #7B8CA5",
"~ 	c #8C94AD",
"{ 	c #9CA5B5",
"] 	c #636F8C",
"^ 	c #848CA5",
"/ 	c #9098A5",
"( 	c #8E949F",
"_ 	c #8C8C9C",
": 	c #848C9C",
"< 	c #949CAD",
"[ 	c #637394",
"} 	c #52637B",
"| 	c #5A6B84",
"1 	c #000000",
"2 	c #8C9CB5",
"3 	c #5A637B",
"4 	c #4A5263",
"5 	c #4A525A",
"6 	c #212129",
"7 	c #080808",
"8 	c #636B84",
"9 	c #4A526B",
"0 	c #84848C",
"a 	c #525A6B",
"b 	c #424A5A",
"c 	c #4A0000",
"d 	c #100000",
"e 	c #101000",
"f 	c #4A4608",
"g 	c #737314",
"h 	c #989418",
"i 	c #001000",
"j 	c #084A00",
"k 	c #087700",
"l 	c #109400",
"m 	c #5A6373",
"n 	c #7B8484",
"o 	c #424252",
"p 	c #A61414",
"q 	c #630000",
"r 	c #6F778C",
"s 	c #7B8699",
"t 	c #737B84",
"u 	c #7B7B8C",
"v 	c #635A10",
"w 	c #A29F1E",
"x 	c #7B848C",
"y 	c #8494A5",
"z 	c #086300",
"A 	c #109C00",
"B 	c #8C9CAD",
"C 	c #424A52",
"D 	c #520808",
"E 	c #5A636B",
"F 	c #181818",
"G 	c #5A5A5A",
"H 	c #313131",
"I 	c #ADA521",
"J 	c #101010",
"K 	c #636373",
"L 	c #10A500",
"M 	c #085200",
"N 	c #393942",
"O 	c #6F7377",
"P 	c #313939",
"Q 	c #313139",
"R 	c #606B78",
"S 	c #525A63",
"T 	c #848C8C",
"U 	c #C12D2D",
"V 	c #8D1010",
"W 	c #63636B",
"X 	c #4A4A52",
"Y 	c #293131",
"Z 	c #B9B521",
"` 	c #ADB5BD",
" .	c #A5B5BD",
"..	c #5A5A63",
"+.	c #10AD00",
"@.	c #10B500",
"#.	c #108C00",
"$.	c #181821",
"%.	c #8C8C94",
"&.	c #C6CED6",
"*.	c #9CADB5",
"=.	c #636363",
"-.	c #4A5252",
";.	c #C5C121",
">.	c #848C94",
",.	c #393939",
"'.	c #10C100",
").	c #18CE00",
"!.	c #676F77",
"~.	c #4A4A5A",
"{.	c #C54F4F",
"].	c #954927",
"^.	c #5A6363",
"/.	c #212121",
"(.	c #CECE29",
"_.	c #E0DC29",
":.	c #18D600",
"<.	c #182121",
"[.	c #6B7384",
"}.	c #909494",
"|.	c #CED6DE",
"1.	c #ED5D5D",
"2.	c #602929",
"3.	c #9CA5AD",
"4.	c #636B6B",
"5.	c #A5ADB5",
"6.	c #18E600",
"7.	c #086B00",
"8.	c #42424A",
"9.	c #9C9CA5",
"0.	c #B5BDC6",
"a.	c #F17777",
"b.	c #181010",
"c.	c #181800",
"d.	c #F5F133",
"e.	c #7B7B84",
"f.	c #001800",
"g.	c #B5B5C6",
"h.	c #848494",
"i.	c #A5A7AF",
"j.	c #D6DEDE",
"k.	c #BDBDCE",
"l.	c #52525A",
"m.	c #733939",
"n.	c #949CA5",
"o.	c #ADB5B5",
"p.	c #D6D6DA",
"q.	c #424A4A",
"r.	c #949C9C",
"s.	c #B5BDBD",
"t.	c #DEDEDE",
"u.	c #73737B",
"v.	c #424242",
"w.	c #394242",
"x.	c #6B7373",
"y.	c #4A4A4A",
"z.	c #525252",
"A.	c #080800",
"B.	c #181810",
"C.	c #4A4A42",
"D.	c #101008",
"E.	c #292921",
"F.	c #212118",
"G.	c #424239",
"H.	c #52524A",
"I.	c #6B6B5A",
"J.	c #73736B",
"K.	c #393931",
"L.	c #5A5A52",
"M.	c #B5B5A4",
"N.	c #90928A",
"O.	c #B9B9B5",
"P.	c #6B6B63",
"Q.	c #DEDED6",
"R.	c #AAA49F",
"S.	c #9C9C94",
"T.	c #F7F7F7",
"U.	c #848473",
"V.	c #CECECE",
"W.	c #CECEC6",
"X.	c #738473",
"Y.	c #313129",
"Z.	c #FFFFFF",
"`.	c #BDBDBD",
" +	c #DDDDDD",
".+	c #7B7B7B",
"++	c #7A7A7A",
"@+	c #3E3E3E",
"#+	c #63635A",
"$+	c #313121",
"%+	c #292929",
"&+	c #525242",
"*+	c #211818",
"=+	c #101018",
"-+	c #393929",
";+	c #4A4A39",
">+	c #424231",
",+	c #C6C6C6",
"'+	c #8C8C7F",
")+	c #DEDEE7",
"!+	c #BEBEBE",
"~+	c #D3D3D3",
"{+	c #B5B5B5",
"]+	c #C5C5C5",
"^+	c #D2D2D2",
"/+	c #858585",
"(+	c #292918",
"_+	c #EFEFE7",
":+	c #ADADA5",
"<+	c #636352",
"[+	c #847373",
"}+	c #272727",
"|+	c #626262",
"1+	c #131313",
"2+	c #121212",
"3+	c #090906",
"4+	c #919191",
"5+	c #E7E7DE",
"6+	c #100808",
"7+	c #959595",
"8+	c #A7A7A7",
"9+	c #747474",
"0+	c #9C9C9C",
"a+	c #040402",
"b+	c #535353",
"c+	c #969696",
"d+	c #686868",
"e+	c #86817E",
"f+	c #D6D6CE",
"g+	c #1D1D1D",
"h+	c #1B1B1B",
"i+	c #414141",
"j+	c #303030",
"k+	c #B1B1B1",
"l+	c #101818",
"m+	c #A5A5A5",
"n+	c #7F7F7F",
"o+	c #575757",
"p+	c #040404",
"q+	c #848484",
"r+	c #B2B2B2",
"s+	c #737363",
"t+	c #151515",
"u+	c #4D4D4D",
"v+	c #737373",
"w+	c #2F2F2F",
"x+	c #6B6B6B",
"y+	c #BFBFBF",
"z+	c #282827",
"A+	c #878787",
"B+	c #2C2C2C",
"C+	c #323232",
"D+	c #444444",
"E+	c #8F8F8F",
"F+	c #4A4A49",
"G+	c #0B0C0C",
"H+	c #0E0F0F",
"I+	c #141516",
". + @ + . . . . . . . . . . . . . . . # # $ % & * = = = = = = = = = = - & $ # # . . . . . . . . . . . . . . . . * ; > . . . . . . . . . . . . . . . . . . . . . . . . . . . . . . . . . . . . . . . . . . . . . . . # $               ",
"# . . . # # # # # , & = ; ' > ) ) ) ) ) ) ) ) ) > > ! ~ { , # # , & = ; ' > ) ) ) ) ) ) ) ) ) > > ! ~ { , # # # ; > ] # # # # # # # # # # # # # # # # # # # # # # # # # # # # # # # # # # # # # # # # # # # # # # # $ *               ",
"# # # # $ , , , , = ; > ^ / ( _ : _ _ _ _ _ _ _ ( / < & # $ & , = ; > ^ / ( _ : _ _ _ _ _ _ _ ( / < & # $ & , , ' [ } , , , , , , , , , , , , , , , , , , , , , , , , , , , , , , , , , , , , , , , , , , , , , , , & ~               ",
", $ , % * = = = = ! > | ( 1 1 1 1 1 1 1 1 1 1 1 1 1 1 1 1 # 2 * ! > | ( 1 1 1 1 1 1 1 1 1 1 1 1 1 1 1 1 # 2 * * ) 3 4 5 : = = = = = = = = = = = = = = = = : 5 6 7 6 5 : = = = = = = = = = = = = = = = : 5 6 7 6 5 : ~ '               ",
"& { * = ; ^ ^ ^ ^ ) 8 9 0 1 1 1 1 1 1 1 1 1 1 1 1 1 1 1 1 # ; ~ ) 8 9 0 1 1 1 1 1 1 1 1 1 1 1 1 1 1 1 1 # ; ~ ~ | a b c d 8 ^ ^ ^ ^ ; ^ ^ ^ ^ ^ ^ ^ ^ ^ 8 e f g h g f e 8 ^ ^ ^ ^ ^ ; ; ; ; ; ^ ^ ^ 8 i j k l k j i 3 )               ",
"{ * = ~ ^ ' ' ' ' ] m b n 1 1 1 1 1 1 1 1 1 1 1 1 1 1 1 1 # ; ~ ] m b n 1 1 1 1 1 1 1 1 1 1 1 1 1 1 1 1 # ; ~ ~ m 4 o p q d r ' ! s t ~ ! ' ' ^ s u ^ r e v h h w w w v e r ' ' ^ : x x x x x y ! r i z A A A A A z i 3               ",
"& { { { < B ~ y ! r m 5 0 1 1 1 1 1 1 1 1 1 1 1 1 1 1 1 1 . = = r m 5 0 1 1 1 1 1 1 1 1 1 1 1 1 1 1 1 1 . = = = 3 4 C p p D C ! ; E F G B ^ ^ / 6 H ~ C f h w w w I I I f C ! ^ : F F F J J 7 K y C j A A L L L L L M N               ",
"% , , { O P P Q Q ) R S T 1 1 1 1 1 1 1 1 1 1 1 1 1 1 1 1 @ { { ) R S T 1 1 1 1 1 1 1 1 1 1 1 1 1 1 1 1 @ { { { R S C U U V 6 ^ B W J F t B < X J Y < 6 g w w I I Z Z Z h 6 ^ ; x F `  . .` ..t ~ 6 k A L +.+.@.@.@.#.$.              ",
", , , , , ` H 0 * ) R a %.1 1 1 1 1 1 1 1 1 1 1 1 1 1 1 1 &., { ) R a %.1 1 1 1 1 1 1 1 1 1 1 1 1 1 1 1 &., { *.R a b U U U 7 ~ < =.7 O J ( O F -.Y * 7 h w I Z ;.;.;.;.Z 7 ~ ~ >.' ,.Q H Y ,.( B 7 A L +.@.'.).).).'.1               ",
", , , , , , Y x < s !.E %.1 1 1 1 1 1 1 1 1 1 1 1 1 1 1 1 &., , s !.E %.1 1 1 1 1 1 1 1 1 1 1 1 1 1 1 1 &., , , !.E ~.{.{.].6 B * ^.1 ` ,./.7 ( ^.Y { 6 g I Z ;.(.(._.(.w 6 B B { ^ ^.....^.F ..< 6 k +.@.'.).:.:.:.L <.              ",
"# ` ` , , ` Y x * >.[.m }.1 1 1 1 1 1 1 1 1 1 1 1 1 1 1 1 |.# , >.[.m }.1 1 1 1 1 1 1 1 1 1 1 1 1 1 1 1 |.# , , [.E 5 1.1.2.5 < { ^.1 ` 3.F 4., ..H 5.5 f I ;.(._._._._.g 5 < * x ; %.%.%.%./...{ 5 M +.'.).:.6.6.6.7.8.              ",
"# # ` ` 5.{ { { { : u !.9.1 1 1 1 1 1 1 1 1 1 1 1 1 1 1 1 |.0.# : u !.9.1 1 1 1 1 1 1 1 1 1 1 1 1 1 1 1 |.0.# ` [.E 5 a.].b.: { { ..1 , { / 5.5...Y 5.: c.g ;.(._.d.d.h c.: { { 0 ~ 1 1 1 1 1 e.{ : f.k ).:.6.6.6.A f.t               ",
"0.g.# ` 5.{ { { { ( h.u i.1 1 1 1 1 1 1 1 1 1 1 1 1 1 1 1 j.k.g.( h.u i.1 1 1 1 1 1 1 1 1 1 1 1 1 1 1 1 j.k.g.` t W l.m.b.u { { { , , 5.{ { { { 5., 5.{ u c.v I _.Z g c.u { { { 5.B ` ` ` ` ` 5.{ { u f.z +.6.'.k f.t :               ",
"0.# ` , 3.n.n.n.n.: h.x o.1 1 1 1 1 1 1 1 1 1 1 1 1 1 1 1 j.0.# : h.x o.1 1 1 1 1 1 1 1 1 1 1 1 1 1 1 1 j.0.# , !.^.5 5 h.n.n.n.n.n.n.n.n.n.n.n.n.n.n.n.n.h.5 6 7 6 5 h.n.n.n.n.n.* n.n.n.n.n.n.n.n.n.h.5 6 7 6 5 h.( x               ",
"` , { / >.x x x x t t e.o.1 1 1 1 1 1 1 1 1 1 1 1 1 1 1 1 p.` 5.t t e.o.1 1 1 1 1 1 1 1 1 1 1 1 1 1 1 1 p.` 5.( ..-.q.x x x x x x x x x x x x x x x x x x x x x x x x x x x x x x { x x x x x x x x x x x x x x x x t 4.              ",
"` 9.>.t 4.W W W W ^.W !.r.s.&.|.p.j.j.j.j.j.j.j.j.t.j.j.p.+ n.0 ^.W !.r.s.&.|.p.j.j.j.j.j.j.j.j.t.j.j.p.+ n.0 u.q.v.w.W W W W W W W W W W W W W W W W W W W W W W W W W W W W W W W W W W W W W W W W W W W W W W W ..-.              ",
"9.0 x...-.q.q.q.q.8.y.l.^.O >.n.i.` ` ` ` ` ` ` ` ` ` i.n.0 x.^.8.y.l.^.O >.n.i.` ` ` ` ` ` ` ` ` ` i.n.0 x.^.l.P P ,.q.q.q.q.q.q.q.q.q.q.q.q.q.q.q.q.q.q.q.q.q.q.q.q.q.q.q.q.q.q.q.q.q.q.q.q.q.q.q.q.q.q.q.q.q.q.q.v.,.              ",
"0 4.z.v.H H H H H H H P v.X ..W x.u.u.u.u.u.u.u.u.u.O 4.^.z.8.,.H H P v.X ..W x.u.u.u.u.u.u.u.u.u.O 4.^.z.8.,.Q H H P H H H H H H H H H H H H H H H H H H H H H H H H H H H H H H H H H H H H H H H H H H H H H H H H H               ",
"1 1 1 A.A.1 1 1 1 1 1 1 1 1 1 1 1 A.1 1 1 1 1 1 A.1 1 1 1 1 1 1 1 1 1 1 1 1 A.7 7 7 1 1 1 1 1 1 A.1 1 1 1 1 1 1 1 1 A.A.1 1 1 1 1 1 A.A.1 1 1 1 1 1 1 1 1 1 1 1 1 1 1 1 1 1 1 1 1 1 1 1 1 1 1 1 1 1 1 1 1 1 1 1 1 1 1 1 1 1 1         ",
"1 A.B.C.C.B.A.1 1 1 D.E.F.1 1 A.B.y.G.J 1 1 A.J C.G.D.1 1 1 1 1 J H 7 1 1 D.H.I.J.H.A.1 1 D.B.K.G.7 D.G.E.E.F.J 1 7 D.K.L.B.7 1 7 B.L.G.J 1 1 1 1 1 1 1 1 1 1 1 1 1 1 1 1 1 1 1 1 1 1 1 1 1 1 1 1 1 1 1 1 1 1 1 1 1 1 1 1 1 1 1 1 1   ",
"1 B.M.N.M.O.b.1 A.B.P.Q.E.1 1 B.R.S.T.J.D.1 D.}.S.T.G.1 1 1 A.B.U.O.D.1 7 G.Q.V.W.E.1 A.B.X.M.J.Y.7 G.Z.Z.Z.Z.J.1 B.U.R.J.W.B.7 H.`.P.Q.U.J 1 1 1 1 1  +.+1 1 1  +t.t.t..+1 1 1 ++t.t..+1 1  +t.t.t.7 1 1 ++t.t.t.1 1 1 ++t.t.t.1 @+  ",
"J U.O.E.G.Z.C.A.7 R.O.t.F.1 A.#+L.$+O.W.B.1 %+E.$+V.G.1 1 A.B.S.t.U.D.1 J S.&+$+B.7 1 B.O.U.*+=+A.7 #+-+$+;+U.B.1 F.T.>+-+V.B.B.,+'+E.U.)+F.1 1 1 1 !+t..+1 1 1  +z.1  +~+1 1 {+~+1  +~+1 1  +z.1  +]+1 1 ^+/+1 1 1 1 1 ^+z.1 1 1 1   ",
"(+_+=.7 E.Z.P.7 A.F.R.:+B.1 1 7 7 F.O.S.J 1 7 B.L.U.B.1 1 J }.I.)+C.A.1 J `._+#+D.1 D.J.,+<+G.J 1 1 7 7 B.N.J 1 1 F._+'+o.[+D.(+Z.P.B.P.T.E.1 1 1 1  +t..+1 1 }+ +1 1  +|+1 1+ +2+3+ +t.1 }+ +1 1  +4+1 1  +/.1 1 1 1 1 4+1 1 1 1 1   ",
"P.Z.E.A.$+T.I.7 1 F.V.#+7 1 1 1 7 G.p.Y.A.1 7 S.5+'+B.1 D.=.y.H._+F.1 1 7 F.O.5+F.1 F._+O.P._+J.6+1 1 B.N.(+A.A.1 F.S.Z.U.F.1 F.T.U.$+N.t.F.1 1 1 7+t.t..+1 1 8+t./+/+9+1 1 8+0+1 a+1 1 1 8+t.1 1  +b+1 b+t.c+d+d+1 1 7+`./+d+1 1 1   ",
"R.t.F.7 I.T.E.1 1 E.Z.E.1 1 1 7 E.R.Y.7 1 1 A.F.r.T.F.7 H.J.K.N.O.(+1 1 1 7 G.T.E.A.C.Z.;+(+R.,+B.1 J [+P.D.1 1 B.S.e+S.j.F.1 J U.p.N.f+M.B.1 1 g+ +t.t..+1 1  +/+h+8+c+1 1  +G 1 1 i+1 1  +/+1 j+t.1 1 k+/+h+h+h+1 1  +/+h+h+1 1 1   ",
"R.f+F.B.'+`.B.1 7 I.W.F.1 1 7 E.S.F.D.A.1 1 1 J J.t.F.J Q.V.f+5+t.=.A.1 1 A.K.f+F.7 P.Z.E.B.S.,+F 7 G.`.l+1 1 1 N.S.F.$+Q.<+A.1 J F.;+Q.C.7 1 1 m+n+o+t..+1 p+ +J 1 m+t.1 1  +@+1 q+r+1 p+ +J 1 m+n+1 1 r+J 1 1 1 1 p+ +J 1 1 1 1 1   ",
"U.Q.$+E.Q.H.7 1 F.:+S.B.1 A.F.O.;+E.=.F.7 B.B.F.`.[+J 7 B.F.>+t.<+J 7 J J B.0 I.D.A.C.Z.G.E.O.U.J B.O.s+D.1 1 1 V.P.F.E.V.Y.A.7 J Y.O.u.J 1 t+u+`.1 1  +d+1 v+t.w+J  +x+1 1  +9+J y+z+1 v+t.w+v+A+1 1 B+0+w+1 1 1 1 v+t.1 1 1 1 1 1   ",
"Y.f+N.:+J.B.1 D.#+_+e+B.1 D.R.f+W.W.S.J J 5+J.S.J.B.1 1 1 1 G._+F.1 D.O.L.0 s+J 1 1 B.O.R.J.`.F.1 F.Z.G.A.1 1 1 J.f+#+S.J.J A.v.0 :+L.D.1 1 C+4+D+1 1 4+t+1 E+4+4+4+4+1 1 1 E+4+4+F+G+1 E+4+4+4+1 1 1 v.4+4+4+4+1 1 E+4+1 1 1 1 1 1   ",
"7 B.L.K.J 1 A.y.L.#+J.,.1 D.e+#+#+P.C.7 7 %+L.E.D.1 1 1 1 1 F.v.D.1 7 K.z./.D.1 1 1 A.B.C.C.B.7 1 D.K.D.1 1 1 1 J K.z.E.D.1 7 y.E.B.7 1 1 1 1 1 1 1 1 1 1 1 1 1 1 1 1 1 1 1 1 1 1 H+I+1 1 1 1 1 1 1 1 1 1 1 1 1 1 1 1 1 1 1 1 1 1 1   ",
"1 1 A.A.1 1 1 7 7 7 7 7 1 1 7 7 7 7 7 1 1 1 A.1 1 1 1 1 1 1 1 1 1 1 1 A.7 1 1 1 1 1 1 1 A.A.1 1 1 1 1 1 1 1 1 1 A.7 1 1 1 1 1 A.1 1 1 1 1 1 1 1 1 1 1 1 1 1 1 1 1 1 1 1 1 1 1 1 1 1 1 1 1 1 1 1 1 1 1 1 1 1 1 1 1 1 1 1 1 1 1 1 1 1   "};
