/* XPM */
static char * autostop_xpm[] = {
"16 17 8 1",
".	c None",
"+	c #000000",
"@	c #67F4FF",
"#	c #0ADAE8",
"$	c #DDD6A8",
"%	c #686C69",
"&	c #C09235",
"*	c #B9BF97",
"................",
"...++++++++++...",
"..+@@@@@@@@@@+..",
"..+@###++####+..",
"..+@+++$$+++#+..",
"..+@+$$%&$$+#+..",
"..+@#+$$@*+##+..",
"..+@#+$$#*++#+..",
"..+@+$$+++$$+++.",
"..+@++++$$%&$$+.",
"..+@###++$$#*+..",
"..+@####+$$#*+..",
"...+++++$$%&*$+.",
".......+++$$+++.",
"..........++....",
"................",
"................"};
