/* XPM */
static char * new_xpm[] = {
"17 17 7 1",
".	c None",
"+	c #000000",
"@	c #E9EBD7",
"#	c #DDD6A8",
"$	c #65511E",
"%	c #C09235",
"&	c #686C69",
"...++++++++......",
"...+@@@@@@++.....",
"...+@#####$@$....",
"...+@@#@#@$@@$...",
"...+@#####%&%&+..",
"...+@#@#@###@@+..",
"...+@########@+..",
"...+@########@+..",
"...+@########@+..",
"...+@########@+..",
"...+@########@+..",
"...+@########@+..",
"...+@#########+..",
"...+@#######@@+..",
"...++++++++++++..",
".................",
"................."};
