/* XPM */
static char * open_xpm[] = {
"18 17 6 1",
".	c None",
"+	c #40494A",
"@	c #0ADAE8",
"#	c #000000",
"$	c #E9EBD7",
"%	c #DDD6A8",
"..................",
"............+.....",
"...........+@+....",
"...###....+@@@+...",
"..#$$$#....+@@....",
"..#$%%$####+@@....",
"..#$%%%$$$$+@@....",
"..#$%%%%##%$#.....",
"..#$%%.#%%#######.",
"..#$%%#%%%%%%%%%#.",
"..#$%#%%%%%%%%%#..",
"..#$#%%%%%%%%%#...",
"..##%%%%%%%%%#....",
"..###########.....",
"..................",
"..................",
".................."};
