/* XPM */
static char * playstart_xpm[] = {
"17 17 4 1",
".	c None",
"+	c #000000",
"@	c #67F4FF",
"#	c #0ADAE8",
".................",
"...++...++.......",
"..+@@+.+@@+......",
"..+@#+.+@#@+.....",
"..+@#+.+@##@+....",
"..+@#+.+@###@+...",
"..+@#+.+@####@+..",
"..+@#+.+@######+.",
"..+@#+.+@######+.",
"..+@#+.+@#####+..",
"..+@#+.+@####+...",
"..+@#+.+@###+....",
"..+@#+.+@##+.....",
"..+##+.+##+......",
"...++...++.......",
".................",
"................."};
