/* XPM */
static char * play_xpm[] = {
"14 17 4 1",
".	c None",
"+	c #000000",
"@	c #67F4FF",
"#	c #0ADAE8",
"..............",
"....++........",
"...+@@+.......",
"...+@#@+......",
"...+@##@+.....",
"...+@###@+....",
"...+@####@+...",
"...+@######+..",
"...+@######+..",
"...+@#####+...",
"...+@####+....",
"...+@###+.....",
"...+@##+......",
"...+##+.......",
"....++........",
"..............",
".............."};
