/* XPM */
static char * saveaudio_xpm[] = {
"18 17 11 1",
".	c None",
"+	c #000000",
"@	c #686C69",
"#	c #DDD6A8",
"$	c #E9EBD7",
"%	c #A3A49B",
"&	c #40494A",
"*	c #2C2C2C",
"=	c #FDFDFD",
"-	c #0ADAE8",
";	c #D50606",
"..................",
".+++++@@@@@@++....",
".+#+#$@%@@#&##+...",
".+#+##@@@@#&$#+...",
".+#+#$@@@&#&##+...",
".+#+++@@&&&*##+...",
".+############+...",
".+##++++++++##+...",
".+#++++++++++++++.",
".+#++==---======+.",
".+#++=----======+.",
".+#++------=====+.",
".++++-----------+.",
".+;++======-----+.",
".++++======----=+.",
"....+========-==+.",
"....+++++++++++++."};
