/* XPM */
static char * psycle_icon_xpm[] = {
"32 32 5 1",
"       c None",
"@      c #000000",
"m      c #808080",
"u      c #C0C0C0",
"-      c #FFFFFF",
"  @@@@@@@@@@@@@@@               ",
" @mu-u-----mum@@m@              ",
"@mu--u-----u-um@@m@             ",
"@u---u-----u--um@@m@            ",
"@----u-----uuu-um@@m@           ",
"@uuuumuuuuum--u-um@@m@          ",
"@---uu---------u-um@@m@         ",
"@--u-u---um@@mu-u-um@@m@        ",
"@---uu---m@mm@mu-u-um@@m@       ",
"@--u-u---@muum@mu-u-um@@m@      ",
"@---uu---@uum@ @mu-mmum@@m@     ",
"@--u-u---@um@   @mu---um@@m@    ",
"@---uu---@m@     @mu---um@@m@   ",
"@uumu----@m@      @mu---um@@m@  ",
"@--u-----@m@       @mu---um@@m@ ",
"@--u-----@m@        @m----um@mu@",
"@--u-----@m@         @-----u@mu@",
"@--u-----@m@         @uum---@mu@",
"@---uumuu@m@         @--u---@mu@",
"@-----u--@m@@@@@@@@@@m--u---@mu@",
"@-----u--@m@@mu---------u---@mu@",
"@-u-u-u-u@m@@u-u-u-u-u-umu-u@mm@",
"@u-@mmmmm@@@@uu-u-u-u-u-u-um@mm@",
"@-umu-u-u@m@@muu-u-u-u-umum@mm@ ",
"@u-m-u-u-@@@@@@@@@@@@@@@@@@@@@  ",
"@mm@mm@-u@m@                    ",
"@u-u-umu-@@@                    ",
"@-u-u-m-u@m@                    ",
"@u-u-umu-@@@                    ",
"@mu-u-m-u@m@                    ",
" @mu-u@um@@@                    ",
"  @@@@@@@@@@                    "};
