/* XPM */
static char * help_xpm[] = {
"14 17 9 1",
".	c None",
"+	c #000000",
"@	c #DDD6A8",
"#	c #E9EBD7",
"$	c #686C69",
"%	c #A3A49B",
"&	c #B9BF97",
"*	c #FDFDFD",
"=	c #40494A",
".++++++++.....",
".+@@@@@@++....",
".+@#####$@$...",
".+@#####$@@$..",
".+@#%%%%&&&&+.",
".+@@%****@@@+.",
".+.@%*==*=@@+.",
".+@@%%@@*=@@+.",
".+@.&%***=@.+.",
".+@&&%*===&@+.",
".+@&&%%&&&&@+.",
".+@&&%*=&&&@+.",
".+@%&&==&&&&+.",
".+@&@&@@&&@@+.",
".++++++++++++.",
"..............",
".............."};
