/* XPM */
static char * less_xpm[] = {
"15 15 16 1",
" 	c #01E0F2",
".	c #06C3D2",
"+	c #66F4FF",
"@	c None",
"#	c #000000",
"$	c #800080",
"%	c #008080",
"&	c #C0C0C0",
"*	c #808080",
"=	c #FF0000",
"-	c #00FF00",
";	c #FFFF00",
">	c #0000FF",
",	c #FF00FF",
"'	c #00FFFF",
")	c #FFFFFF",
"@@@@@@@@@@@@@@@",
"@@@@@@@@@@@@@@@",
"@@@@@@@@@@@@@@@",
"@@@@@@##@@@@@@@",
"@@@@@#+#@@@@@@@",
"@@@@#+ ####@@@@",
"@@@#+  ++++#@@@",
"@@#+      .#@@@",
"@@@#.  ....#@@@",
"@@@@#. ####@@@@",
"@@@@@#.#@@@@@@@",
"@@@@@@##@@@@@@@",
"@@@@@@@@@@@@@@@",
"@@@@@@@@@@@@@@@",
"@@@@@@@@@@@@@@@"};
