/* XPM */
static char * machines_xpm[] = {
"14 17 14 1",
".	c None",
"+	c #686C69",
"@	c #40494A",
"#	c #0ADAE8",
"$	c #67F4FF",
"%	c #D50606",
"&	c #A3A49B",
"*	c #00FF00",
"=	c #000000",
"-	c #FDFDFD",
";	c #E9EBD7",
">	c #C09235",
",	c #65511E",
"'	c #DDD6A8",
"..............",
"..+++++++@@...",
".+#$#$###%%@..",
".++#$##$+&.@..",
".+&&&&.&&**@..",
"..++++@+@@@...",
".....===......",
"....=-;-=.....",
".....=-=......",
"......=.......",
"..>>>>>,>,,...",
".>+#####+%%,..",
".>##$#$##'>,..",
".>>>>>>>>>>,..",
"..>>>>>>>,,...",
"..............",
".............."};
