/* XPM */
static char * p_xpm[] = {
"18 17 8 1",
".	c None",
"+	c #2C2C2C",
"@	c #686C69",
"#	c #E9EBD7",
"$	c #DDD6A8",
"%	c #40494A",
"&	c #A3A49B",
"*	c #000000",
"..++++++@.........",
".+######+@........",
".+#$$$$##+@.......",
".+##$#$$$#%%......",
".+#$$$%%%$#%%.....",
".+#$$$%%@%$#%%....",
".+$$$$@..%%$#%+...",
".%$#$$%...%%$$@@..",
".+$$$$%....+$$#%@.",
".%$$$$%%++++$$#@@.",
".%$$$$%%$$$$$$#@@.",
".%$$$$+%#####$@@&.",
".%$$$$+++***@@@...",
".%#$$$+...........",
".%#$$@@...........",
"..%@%&............",
".................."};
