/* XPM */
static char * pattern_header_skin_xpm[] = {
"111 30 256 2",
"  	c #000000",
". 	c #001000",
"+ 	c #001800",
"@ 	c #080800",
"# 	c #080808",
"$ 	c #080810",
"% 	c #084A00",
"& 	c #085200",
"* 	c #100000",
"= 	c #100808",
"- 	c #101000",
"; 	c #101008",
"> 	c #101010",
", 	c #101018",
"' 	c #101818",
") 	c #180808",
"! 	c #181010",
"~ 	c #181800",
"{ 	c #181810",
"] 	c #181818",
"^ 	c #181821",
"/ 	c #182118",
"( 	c #182121",
"_ 	c #211818",
": 	c #212118",
"< 	c #212121",
"[ 	c #212129",
"} 	c #292918",
"| 	c #292921",
"1 	c #292929",
"2 	c #292931",
"3 	c #293131",
"4 	c #313121",
"5 	c #313129",
"6 	c #313131",
"7 	c #4A0000",
"8 	c #630000",
"9 	c #730000",
"0 	c #520808",
"a 	c #602929",
"b 	c #4A4608",
"c 	c #393929",
"d 	c #393931",
"e 	c #424231",
"f 	c #313139",
"g 	c #313939",
"h 	c #393939",
"i 	c #424239",
"j 	c #4A4A39",
"k 	c #733939",
"l 	c #393942",
"m 	c #394242",
"n 	c #424242",
"o 	c #4A4A42",
"p 	c #31394A",
"q 	c #42424A",
"r 	c #424A4A",
"s 	c #4A4A4A",
"t 	c #394252",
"u 	c #424252",
"v 	c #424A52",
"w 	c #4A4A52",
"x 	c #424A5A",
"y 	c #4A4A5A",
"z 	c #086300",
"A 	c #086B00",
"B 	c #4A5252",
"C 	c #4A525A",
"D 	c #525242",
"E 	c #52524A",
"F 	c #525252",
"G 	c #52525A",
"H 	c #635A10",
"I 	c #626223",
"J 	c #5A5A52",
"K 	c #636352",
"L 	c #525A5A",
"M 	c #5A5A5A",
"N 	c #63635A",
"O 	c #6B6B5A",
"P 	c #4A5263",
"Q 	c #525A63",
"R 	c #5A5A63",
"S 	c #5A6363",
"T 	c #636363",
"U 	c #6B6B63",
"V 	c #4A526B",
"W 	c #525A6B",
"X 	c #5A636B",
"Y 	c #63636B",
"Z 	c #636B6B",
"` 	c #526373",
" .	c #5A6373",
"..	c #636373",
"+.	c #52637B",
"@.	c #5A637B",
"#.	c #087700",
"$.	c #108C00",
"%.	c #109400",
"&.	c #109C00",
"*.	c #10A500",
"=.	c #737314",
"-.	c #737363",
";.	c #73736B",
">.	c #10AD00",
",.	c #10B500",
"'.	c #10C100",
").	c #18CE00",
"!.	c #18D600",
"~.	c #18E600",
"{.	c #3DFD25",
"].	c #73FF63",
"^.	c #606B78",
"/.	c #5A6B84",
"(.	c #676F77",
"_.	c #6B7373",
":.	c #6F7377",
"<.	c #73737B",
"[.	c #738473",
"}.	c #738C73",
"|.	c #636B84",
"1.	c #636F8C",
"2.	c #6B7384",
"3.	c #737B84",
"4.	c #637394",
"5.	c #6F778C",
"6.	c #6F7B94",
"7.	c #717F9E",
"8.	c #8D1010",
"9.	c #A61414",
"0.	c #954927",
"a.	c #866A62",
"b.	c #C12D2D",
"c.	c #C54F4F",
"d.	c #FF2929",
"e.	c #ED5D5D",
"f.	c #7B7B84",
"g.	c #7B7B8C",
"h.	c #7B8484",
"i.	c #7B848C",
"j.	c #847373",
"k.	c #848473",
"l.	c #86817E",
"m.	c #F17777",
"n.	c #989418",
"o.	c #A29F1E",
"p.	c #ADA521",
"q.	c #A4A23C",
"r.	c #84848C",
"s.	c #848C8C",
"t.	c #8C8C7F",
"u.	c #90928A",
"v.	c #7B8699",
"w.	c #848494",
"x.	c #848C94",
"y.	c #848C9C",
"z.	c #8C8C94",
"A.	c #909494",
"B.	c #9C9C94",
"C.	c #A5A594",
"D.	c #7B84A5",
"E.	c #7B8CA5",
"F.	c #7B8CAD",
"G.	c #848CA5",
"H.	c #848CAD",
"I.	c #84949C",
"J.	c #8494A5",
"K.	c #8494AD",
"L.	c #8C8C9C",
"M.	c #8E949F",
"N.	c #9098A5",
"O.	c #949C9C",
"P.	c #949CA5",
"Q.	c #8C94AD",
"R.	c #8C9CAD",
"S.	c #8C9CB5",
"T.	c #949CAD",
"U.	c #949CB5",
"V.	c #94A5B5",
"W.	c #94A5BD",
"X.	c #9C9CA5",
"Y.	c #9CA5AD",
"Z.	c #9CA5B5",
"`.	c #9CA5BD",
" +	c #9CAD9C",
".+	c #A5A59C",
"++	c #AAA49F",
"@+	c #ADADA5",
"#+	c #A5A7AF",
"$+	c #B59C9C",
"%+	c #FF9C9C",
"&+	c #FFADAD",
"*+	c #B9B521",
"=+	c #C5C121",
"-+	c #CECE29",
";+	c #97E68E",
">+	c #E0DC29",
",+	c #F5F133",
"'+	c #FFFF62",
")+	c #FFFF83",
"!+	c #9CADB5",
"~+	c #A5ADB5",
"{+	c #ADB5B5",
"]+	c #B5B5A4",
"^+	c #B9B9B5",
"/+	c #ADFF9C",
"(+	c #BDFFAD",
"_+	c #FFFFAD",
":+	c #9CADBD",
"<+	c #A5ADBD",
"[+	c #A5ADC6",
"}+	c #A5B5BD",
"|+	c #A5B5C6",
"1+	c #ADB5BD",
"2+	c #B5BDBD",
"3+	c #BDBDBD",
"4+	c #CABDB9",
"5+	c #BDCEB5",
"6+	c #CEBDBD",
"7+	c #D6BDBD",
"8+	c #BDD6B5",
"9+	c #D2D2BD",
"0+	c #FFFFB5",
"a+	c #FFFFBD",
"b+	c #ADB5C6",
"c+	c #ADB5CE",
"d+	c #ADBDCE",
"e+	c #B5B5C6",
"f+	c #B5BDC6",
"g+	c #B5BDCE",
"h+	c #BDBDCE",
"i+	c #BDC6CE",
"j+	c #BDC6D6",
"k+	c #C6C6C6",
"l+	c #C6C6D6",
"m+	c #C6CED6",
"n+	c #CECEC6",
"o+	c #CECECE",
"p+	c #CED6DE",
"q+	c #D6D6CE",
"r+	c #D6D6DA",
"s+	c #D6DEDE",
"t+	c #DEDED6",
"u+	c #DEDEDE",
"v+	c #D6DEE7",
"w+	c #DEDEE7",
"x+	c #E7E7DE",
"y+	c #DEF3DE",
"z+	c #E7FFE7",
"A+	c #EFEFE7",
"B+	c #F7F7F7",
"C+	c #FFD6D6",
"D+	c #FFE7E7",
"E+	c #FFFFDE",
"F+	c #FFFFEF",
"G+	c #FFFFFF",
"g+i+j+i+g+g+g+g+g+g+g+g+g+g+g+g+g+g+g+b+b+[+:+`.V.U.U.U.U.U.U.U.U.U.U.W.`.[+b+b+g+g+g+g+g+g+g+g+g+g+g+g+g+g+g+g+g+g+g+g+g+g+g+g+g+g+g+g+g+g+g+g+g+g+g+g+g+g+g+g+g+g+g+g+g+g+g+g+g+g+g+g+g+g+g+g+g+g+g+g+g+g+g+g+g+g+b+[+V.K.7.",
"b+g+g+g+b+b+b+b+b+b+b+b+b+b+b+b+b+b+|+<+`.U.K.D.7.6.6.6.6.6.6.6.6.6.7.7.E.Q.Z.<+b+b+b+b+b+b+b+b+b+b+b+b+b+b+b+b+b+b+b+b+b+b+b+b+b+b+b+b+b+b+b+b+b+b+b+b+b+b+b+b+b+b+b+b+b+b+b+b+b+b+b+b+b+b+b+b+b+b+b+b+b+b+b+b+b+b+[+V.K.7.1.",
"b+b+b+b+[+<+<+<+<+<+<+<+<+<+<+<+<+<+`.U.K.7.G.N.M.L.y.L.L.L.L.L.L.L.M.N.T.`.b+[+`.<+<+<+<+<+<+<+<+<+<+<+<+<+<+<+<+<+<+<+<+<+<+<+<+<+<+<+<+<+<+<+<+<+<+<+<+<+<+<+<+<+<+<+<+<+<+<+<+<+<+<+<+<+<+<+<+<+<+<+<+<+<+<+<+<+`.Q.D.4.+.",
"<+[+<+:+V.U.U.U.U.U.U.U.U.U.U.U.U.U.Q.E.7./.M.                                b+S.V.V.U.U.U.U.U.U.U.U.U.U.U.y.C [ # [ C y.U.U.U.U.U.U.U.U.U.U.U.U.U.U.U.U.y.C [ # [ C y.U.U.U.U.U.U.U.U.U.U.U.U.U.U.U.y.C [ # [ C y.Q.D.6.@.P ",
"`.Z.V.U.K.G.G.G.G.G.G.G.G.G.G.G.G.G.D.6.|.V r.                                b+K.Q.Q.K.K.K.K.K.K.G.G.G.G.|.* 7 9 8.9 7 * |.G.G.G.G.K.G.G.G.G.G.G.G.G.G.|.- b =.n.=.b - |.G.G.G.G.G.K.K.K.K.K.G.G.G.|.. % #.%.#.% . @.6./.W x ",
"Z.V.U.Q.G.D.D.D.D.D.D.D.D.D.D.D.D.D.7.1. .x h.                                b+K.Q.Q.y.i.i.i.i.i.y.G.D.5.* 8 8.8.8.9.9.8 * 5.D.E.v.3.Q.E.D.D.G.v.g.G.5.- H n.n.o.o.o.H - 5.D.D.G.y.i.i.i.i.i.J.E.5.. z &.&.&.&.&.z . @. .P u ",
"`.Z.Z.Z.T.R.Q.J.Q.R.R.Q.J.G.J.J.J.Q.y.5. .C r.                                g+U.U.U.Y ] ] ] > #   y.G.v 0 9.9.9.9.9.9.9.0 v E.K.X ] M R.G.G.N.[ 6 Q.v b n.o.o.o.p.p.p.b v E.G.y.] ] ] > > # ..J.v % &.&.*.*.*.*.*.& l @.P v ",
":+<+:.g g f f Z.g g g g y.T.f Z.3.m (.6.^.Q s.                                j+Z.Z.Z.Z > 1+~+<+s.  i.K.[ 8.9.9.9.9.b.b.b.8.[ G.R.Y > ] 3.R.T.w > 3 T.[ =.o.o.p.p.*+*+*+n.[ G.K.i.] 1+}+}+1+R 3.Q.[ #.&.*.>.>.,.,.,.$.^ ^.Q v ",
"<+<+<+1+6 r.V.!+  2+2+6 i.!+  F h T.J.6.^.W z.                                m+<+Z.!+Y # S R R q   i.Q.# 9.b.b.b.b.b.b.b.b.# Q.T.T # :.> M.:.] B 3 V.# n.o.p.*+=+=+=+=+*+# Q.Q.x.> h f 6 3 h M.R.# &.*.>.,.'.).).).'.  ^.W x ",
"<+<+<+<+3 i.T.~+  3   3 M.~+  h h Y.N.v.(.X z.                                m+<+<+<+T   3 ]   3 r Z.R.[ k b.c.c.c.c.c.c.0.[ R.V.S   1+h < # M.S 3 Z.[ =.p.*+=+-+-+>+-+o.[ R.R.Z.:.S R R S ] R T.[ #.>.,.'.).!.!.!.*.( (.X y ",
"b+1+<+1+3 i.V.~+  1+f.h x.~+  1+3.] Z x.2. .A.                                p+b+<+<+S   2+#+< < Y.Z.T.C a c.c.c.e.e.e.e.a C T.Z.S   1+Y.] Z <+R 6 ~+C b p.=+-+>+>+>+>+=.C T.V.i.r z.z.z.z.< R Z.C & >.'.).!.~.~.~.A q 2.X C ",
"b+b+1+<+~+Z.Z.Z.~+Z.Z.~+Z.Z.~+Z.Z.~+Y.y.g.(.X.                                p+f+b+1+S   <+Z.<+r # (.Z.y.) k c.m.m.m.m.0.! y.Z.Z.R   <+Z.N.~+~+R 3 ~+y.~ =.=+-+>+,+,+n.~ y.Z.Z.r.#           f.Z.y.+ #.).!.~.~.~.&.+ 3.2.X C ",
"f+e+b+1+~+Z.Z.Z.Z.Z.Z.Z.Z.Z.Z.Z.Z.Z.T.M.w.g.#+                                s+h+e+1+1+<+~+Z.Z.<+1+~+Z.Z.g.! a c.m.c.k ! g.Z.Z.Z.<+<+~+Z.Z.Z.Z.~+<+~+Z.g.~ H p.>+*+=.~ g.Z.Z.Z.~+1+1+1+1+1+1+~+Z.Z.g.+ z >.~.'.#.+ 3.y.3.Y G ",
"f+b+1+<+Y.P.P.P.P.P.P.P.P.P.P.P.P.P.N.y.w.i.{+                                s+f+b+<+Y.P.P.P.P.P.P.P.P.P.P.w.C [ # [ C w.P.P.P.P.P.P.P.P.P.P.P.P.P.P.P.P.w.C [ # [ C w.P.P.P.P.P.P.P.P.P.P.P.P.P.P.P.w.C [ # [ C w.M.i.(.S C ",
"1+<+Z.N.x.i.i.i.i.i.i.i.i.i.i.i.i.i.f.3.3.f.{+                                r+1+~+M.r.i.i.i.i.i.i.i.i.i.i.i.i.i.i.i.i.i.i.i.i.i.i.i.i.i.i.i.i.i.i.i.i.i.i.i.i.i.i.i.i.i.i.i.i.i.i.i.i.i.i.i.i.i.i.i.i.i.i.i.i.i.i.3.Z R B r ",
"1+X.x.3.Z Y Y Y Y Y Y Y Y Y Y Y Y Y S S Y (.O.2+m+p+r+s+s+s+s+s+s+s+s+u+s+s+r+i+P.r.<.Z Y Y Y Y Y Y Y Y Y Y Y Y Y Y Y Y Y Y Y Y Y Y Y Y Y Y Y Y Y Y Y Y Y Y Y Y Y Y Y Y Y Y Y Y Y Y Y Y Y Y Y Y Y Y Y Y Y Y Y Y Y Y R B r n m ",
"X.r._.R B r r r r r r r r r r r r r q q s G S :.x.P.#+1+1+1+1+1+1+1+1+1+1+#+P.r._.S G s r r r r r r r r r r r r r r r r r r r r r r r r r r r r r r r r r r r r r r r r r r r r r r r r r r r r r r r r r r r r r r n h g g h ",
"r.Z F n 6 6 6 6 6 6 6 6 6 6 6 6 6 6 6 6 6 g n w R Y _.<.<.<.<.<.<.<.<.<.:.Z S F q h f 6 6 6 6 6 6 6 6 6 6 6 6 6 6 6 6 6 6 6 6 6 6 6 6 6 6 6 6 6 6 6 6 6 6 6 6 6 6 6 6 6 6 6 6 6 6 6 6 6 6 6 6 6 6 6 6 6 6 6 6 6 6 6 6 6 6 6 g ",
"      @ @                         @             @                           @ # # #             @                   @ @             @ @     `.<+P.F <   < F P.<+`.`.<+P.F <   < F P.<+`.`.<+P.F <   < F P.<+Q.G+G+G+G+G+G+G+G+",
"  @ { o o { @       ; | :     @ { s i >     @ > o i ;           > 6 #     ; E O ;.E @     ; { d i # ; i | | : >   # ; d J { #   # { J i >   Z.h.< j.4+D+4+j.< h.Z.Z.h.< k.9+F+9+k.< h.Z.Z.h.< [.5+z+5+[.< 3.J.G+G+G+G+G+G+G+G+",
"  { ]+u.]+^+!   @ { U t+|     { ++B.B+;.;   ; A.B.B+i       @ { k.^+;   # i t+o+n+|   @ { [.]+;.5 # i G+G+G+G+;.  { k.++;.n+{ # E 3+U t+k.> x.< $+C+&+%+&+C+$+< x.x.< @+E+a+0+a+E+@+< x.x.<  +y+(+/+(+y+ +< h.G+G+G+G+G+G+G+G+",
"> k.^+| i G+o @ # ++^+u+:   @ N J 4 ^+n+{   1 | 4 o+i     @ { B.u+k.;   > B.D 4 { #   { ^+k._ , @ # N c 4 j k.{   : B+e c o+{ { k+t.| k.w+: F j.C+%+m.e.m.%+C+j.F F k.E+_+)+)+)+_+E+k.F F [.y+/+].].]./+y+[.s G+G+G+G+G+G+G+G+",
"} A+T # | G+U # @ : ++@+{     # # : ^+B.>   # { J k.{     > A.O w+o @   > 3+A+N ;   ; ;.k+K i >     # # { u.>     : A+t.{+j.; } G+U { U B+| < 4+&+m.e.d.e.m.&+4+< < 9+a+)+'+'+'+)+a+9+< < 5+(+].].{.].].(+5+< G+G+G+G+G+G+G+G+",
"U G+| @ 4 B+O #   : o+N #       # i r+5 @   # B.x+t.{   ; T s E A+:     # : ^+x+:   : A+^+U A+;.=     { u.} @ @   : B.G+k.:   : B+k.4 u.u+:   D+%+e.d.d.d.e.%+D+    F+0+)+'+'+'+)+0+F+    z+/+].{.{.{.]./+z+  G+G+G+G+G+G+G+G+",
"++u+: # O B+|     | G+|       # | ++5 #     @ : O.B+: # E ;.d u.^+}       # i B+| @ o G+j } ++k+{   > j.U ;     { B.l.B.s+:   > k.r+u.q+]+{ < 4+&+m.e.d.e.m.&+6+< < 9+a+)+'+'+'+)+a+9+< < 5+(+].].{.].].(+5+< G+G+G+G+G+G+G+G+",
"++q+: { t.3+{   # O n+:     # | B.: ; @       > ;.u+: > t+o+q+x+u+T @     @ d q+: # U G+| { B.k+] # i 3+'       u.B.: 4 t+K @   > : j t+o # F j.C+%+m.e.m.%+C+j.F F k.E+_+)+)+)+_+E+k.F F [.y+/+].].]./+y+}.E G+G+G+G+G+G+G+G+",
"k.t+4 | t+E #   : @+B.{   @ : ^+j | T : # { { : 3+j.> # { : e u+K > # > > { r.O ; @ o G+i | ^+k.> { ^+-.;       o+U : | o+5 @ # > 5 ^+<.>   X.< $+C+&+%+&+C+$+< X.X.< @+E+a+0+a+E+]+| X.X.<  +y+(+/+(+y+ +< z.G+G+G+G+G+G+G+G+",
"5 q+u.@+;.{   ; N A+l.{   ; ++q+n+n+B.> > x+;.B.;.{         i A+:   ; ^+J r.-.>     { ^+++;.3+:   : G+i @       ;.q+N B.;.> @ n r.@+J ;     1+s.< j.6+D+6+l.< s.1+1+s.< k.9+F+9+t.| s.1+1+s.< [.5+z+5+}.< r.Y.G+G+G+G+G+G+G+G+",
"# { J d >   @ s J N ;.h   ; l.N N U o # # 1 J | ;           : n ;   # d F < ;       @ { o o { #   ; d ;         > d F | ;   # s | { #       #+~+O.F <   < F O.~+#+#+~+O.F <   < F O.~+#+#+~+O.F <   < F O.#+z.G+G+G+G+G+G+G+G+",
"    @ @       # # # # #     # # # # #       @                         @ #               @ @                     @ #           @             G+G+G+G+G+G+G+G+G+G+G+G+G+G+G+G+G+G+G+G+G+G+G+G+G+G+G+G+G+G+G+G+G+G+G+G+G+G+G+G+G+"};
