/* XPM */
static char * playselpattern_xpm[] = {
"21 21 128 2",
"  	c None",
". 	c #D4D0C8",
"+ 	c #C9C6BE",
"@ 	c #A9A6A2",
"# 	c #91908D",
"$ 	c #898887",
"% 	c #9E9D9A",
"& 	c #B7B5AE",
"* 	c #D0CDC5",
"= 	c #CAC8C2",
"- 	c #989692",
"; 	c #828281",
"> 	c #AEAEAD",
", 	c #D0CFCD",
"' 	c #DFDEDC",
") 	c #A5A4A1",
"! 	c #878683",
"~ 	c #BDBAB4",
"{ 	c #BAB7B1",
"] 	c #757573",
"^ 	c #B5B5B3",
"/ 	c #F5F4F1",
"( 	c #F8F7F4",
"_ 	c #D0D0CE",
": 	c #6C6C6C",
"< 	c #F3F2EE",
"[ 	c #F1F0EC",
"} 	c #F0EFEB",
"| 	c #8E8D8B",
"1 	c #C6C3BC",
"2 	c #EEEDE8",
"3 	c #ECEAE6",
"4 	c #EBEAE6",
"5 	c #9A9996",
"6 	c #B5B2AE",
"7 	c #EBE9E3",
"8 	c #E9E7E2",
"9 	c #E8E5E0",
"0 	c #E7E4DE",
"a 	c #EFEDE6",
"b 	c #EAE7E0",
"c 	c #E6E4DB",
"d 	c #E3E1D9",
"e 	c #E5E3DB",
"f 	c #EDEAE2",
"g 	c #D2D0CB",
"h 	c #959391",
"i 	c #ABAAA5",
"j 	c #E9E6DC",
"k 	c #E1DFD6",
"l 	c #DFDCD3",
"m 	c #DCD9CF",
"n 	c #8D8F8F",
"o 	c #DAD6CD",
"p 	c #E4E1D7",
"q 	c #D6D1C8",
"r 	c #D5D0C6",
"s 	c #3A4755",
"t 	c #2F3A45",
"u 	c #4F5C69",
"v 	c #787A7B",
"w 	c #656B70",
"x 	c #757A7D",
"y 	c #6B7175",
"z 	c #676E72",
"A 	c #D1CEC2",
"B 	c #D7D2C8",
"C 	c #D0CBC1",
"D 	c #CBC7BC",
"E 	c #CAC5BA",
"F 	c #28313B",
"G 	c #797A7A",
"H 	c #CECABF",
"I 	c #6E7375",
"J 	c #B3B1AB",
"K 	c #B1AEA8",
"L 	c #7E7D7C",
"M 	c #C7C4B8",
"N 	c #C2BDB3",
"O 	c #43505F",
"P 	c #BFBBB1",
"Q 	c #61666B",
"R 	c #B5B2AA",
"S 	c #C5C1B7",
"T 	c #566778",
"U 	c #2E3944",
"V 	c #9F9C92",
"W 	c #BAB7AC",
"X 	c #666B6E",
"Y 	c #696A6A",
"Z 	c #656A6B",
"` 	c #5B6268",
" .	c #63686D",
"..	c #5D6368",
"+.	c #B8B4AB",
"@.	c #ABA8A1",
"#.	c #98968E",
"$.	c #ADAAA5",
"%.	c #ACA8A2",
"&.	c #6C747A",
"*.	c #A19E97",
"=.	c #A9A69D",
"-.	c #A3A09A",
";.	c #9F9C96",
">.	c #9D9A95",
",.	c #AEACA1",
"'.	c #BDB9AF",
").	c #96958A",
"!.	c #97958E",
"~.	c #939289",
"{.	c #918F8A",
"].	c #94928D",
"^.	c #787776",
"/.	c #949289",
"(.	c #8C8B85",
"_.	c #86847E",
":.	c #8B8983",
"<.	c #8F8E86",
"[.	c #A4A395",
"}.	c #B5B4A4",
"|.	c #9A9991",
"1.	c #939386",
"2.	c #A9A899",
"3.	c #9B9A8C",
"4.	c #88887F",
"5.	c #A0A090",
"6.	c #919084",
"7.	c #C1BEB8",
". . . . . . + @ # $ $ $ % & * . . . . . . ",
". . . . = - ; > , ' ' ' = ) ! ~ . . . . . ",
". . . { ] ^ / / / / / / / ( _ % % * . . . ",
". . { : = < [ } } } } [ [ < < / ^ | * . . ",
". 1 ] = } 2 3 4 3 4 4 3 2 2 2 } < ^ 5 . . ",
". # 6 2 7 8 9 0 9 9 9 8 8 8 7 3 2 [ ) { . ",
"1 ; a b c d d d d d e e e e c 0 b f g h . ",
") i j k l m m m ; n o l l l l k p c f n = ",
"| + l o q r r r s t u v w x y z o l p i { ",
"; A B C D E E E u t F t G { H I C r m J K ",
"L A C M N N N N u s t F F O P Q N E A R i ",
"; M H S P P P P T O t U u V W X P S A i K ",
"| & D P & R R R T O u Y Z `  ...+.N H % { ",
"@.#.E W K $.%.$.&.&.*.@.@ =.=.@.K P D ; * ",
"+ : N +.@.-.*.;.;.;.;.>.>.>.;.-.,.'.@.- . ",
". 5 ).W =.>.!.~.{.{.{.{.{.].#.*.,.W G 1 . ",
". * ^.#.,.V /.(.! ! _._.:.<.!.[.}.|.) . . ",
". . 1 ] 1.2.3.<.4._._.4.:./.V [.<.5 . . . ",
". . . + L 4.5.5.).1.6.1.3.[.).G 6 . . . . ",
". . . . . @ ] ] 4.1.1.6.4.] # = . . . . . ",
". . . . . . . 7.@ h h % K = . . . . . . . "};
