/* XPM */
static char * save_audio_xpm[] = {
"340 17 16 1",
" 	c #40494A",
".	c #67F4FF",
"+	c #0ADAE8",
"@	c #686C69",
"#	c #00FF00",
"$	c #B9BF97",
"%	c #A3A49B",
"&	c #E9EBD7",
"*	c #DDD6A8",
"=	c #65511E",
"-	c #C09235",
";	c #D50606",
">	c #FDFDFD",
",	c #C0C0C0",
"'	c #2C2C2C",
")	c #000000",
",,,)))))))),,,,,,,,,,,,,,,,,,,,,,,,,,,,,,,,,,,,,,,,,,,,,,,,,,,,,,,,,,,,,,,,,,,,,,,,,,,,,,,,,,,,,,,,,,,,,,,,,,,,,,,,,,,,,,,,,,,,,,,,,,,,,,,,,,,,,,,,,,,,,,,,,,,,,,,,,,,,,,,,,,,,,,,,,,,,,,,,,,,,,,,,,,,,,,,,,,,,,,,,,,,,,,,,,,,,,,,,,,,,,,,,,,,,,,,,,,,,,,,,,,,,,,,,,,,,,,,,,,,,,,,,,,,,,,,,,,,,,,,,,,,,,,,,,,,,,,,,,''''''@,,,,,,,,,,)))))))),,,,,,,",
",,,)&&&&&&)),,,,,,,,,,,,,,,, ,,,,,,)))))@@@@@@)),,,,)))))@@@@@@)),,,,,,,,,,)))),,,,,,,,,,,,,,,,,,,,,,,,,,,,,,,,,,,,,,,,,,,,,,))))),,,,,,,,,)),,,)),,,,,,,,,,,,)),,,,,,,,,,,,,)),,,,,,,,,,,,,,,,,,,,,,,,,,,,,,,,)))))))))),,,,,,@@@@@@@  ,,,,,,,)))))))))))))),,,))))))))))))))),,,,,,,,,,,,,,,,,,,,,,,,,,)))),,,,,,'&&&&&&'@,,,,,,,,,)******)),,,,,,",
",,,)&*****=&=,,,,,,,,,,,,,, + ,,,,,)*)*&@%@@* **),,,)*)*&@%@@* **),,,,,,,));;;;)),,,,,,,,,,,,,,,,,,,,,,,,,,,,,,,,,,,,,,,,,,));;;;;)),,,,,,)..),)..),,,,,,,,,,)..),,,,,,,,,,,)..),,,,,,,,,,,,,,)))))))))),,,,,,)..........),,,,@+.+.+++;; ,,,,,,)&& - &&&-,#@),,,)**)**)**)**)*),,,%%%%%@,,,,,,,,,,,,,,,,)>&&),,,,,,'&****&&'@,,,,,,,,)*&&&&&@*@,,,,,",
",,,)&&*&*&=&&=,,,,,))),,,, +++ ,,,,)*)**@@@@* &*),,,)*)**@@@@* &*),,,,,,);;;;;;;;),,,,,,,,,,,,,,,,,,,,,,,,,,,,,,,,,,,,,,,,);;;;;;;;;),,,,,).+),).+.),,,,,,,,,).+.),,,,,,,,,,).+.)=======,,,,,)..........),,,,,).+++))++++),,,,@@+.++.@%, ,,,,,,)&,---,,,,,,,),,,))))))))))))))),,,%.+++@,,,,,,,,,,,,,,,,)&&,),,,,,,'&&*&***&  ,,,,,,,)*&&&&&@**@,,,,",
",,,)&*****-@-@),,,)&&&),,,, ++,,,,,)*)*&@@@ * **),,,)*)*&@@@ * **),,,,,,);;;;;;;;),,,,,,,,,,,,))),,,,,,,,,,))),,,,,,,,,,,);;;;;;;;;;;),,,,).+),).++.),,,,,,,,).++.),,,,,,,,,).++.)****, %,,,,).+++++++++),,,,,).)))**)))+),,,,@%%%%,%%## ,,,,,,),, @ ,,,,,%%),,,)********----*),,,%.+.+@,,,,,,,,,,,,,))))))))))),,,'&***   *&  ,,,,,,)*&%%%%$$$$),,,",
",,,)&*&*&***&&),,,)&**&)))) ++,,,,,)*)))@@   '**),,,)*)))@@   '**),,,,,);;;;;;;;;;),,,,,),,,))@@@),,,,,,,,)@@@)),,,),,,,,);;;;;;;;;;;),,,,).+),).+++.),,,,,,,).+++.),,,,,,,,).+++.)&&&&=%,,,,).+++..++++),,,,,).)**@-**)+),,,,,@@@@ @   ,,,,,,,)))))))))))))),,,)********----*),,,%+.++ ,,,,,,,,,,,,)***********),,'&***  @ *&  ,,,,,)**%>>>>***),,,",
",,,)&********&),,,)&***&&&& ++,,,,,)************),,,)************),,,,,);;;;;;;;;;),,,,,)),)@@@,,,),,,,,,),,,@@@),)),,,,);;;;;;;;;;;;;),,,).+),).++++.),,,,,,).++++.),,,,,,,).++++.)&&& %,,,,).+++>.++++),,,,,).+)**.$)++),,,,,,,,))),,,,,,,,,,)********$$$$),,,))))))))))))))),,,%@@@= ,)),,,,,,,,)*$$$$$$$$$,)),,'****@,,  *& ',,,,),*%>  > **),,,",
",,,)&********&),,,)&****))*&),,,,,,)**))))))))**),,,)**))))))))**),,,,,)))))))))))),,,,,)))@@,,,,,),,,,,,),,,,,@@))),,,,);;;;;;;;;;;;;),,,).+),).++++++),,,,,).++++++),,,,,,).++++++)&&=%,,,,).+++..++++),,,,,).+)**+$))+),,,,,,,)>&>),,,,,,,,,)$$,$,$$*%%$%),,,);;;;*********),,,,%,%)))**))),,,,,)%%%%%%%%%%)$),, *&** ,,,  **@@,,,)**%%**> **),,,",
",,,)&********&),,,)&**,)**))))))),,)*)&&&&&&&&)*),,,)*)))))))))))))),))&&)&)&&)&)&))),,,)))),,,,,,),,,,,,),,,,,,)))),,,,);;;;;;;;;;;;;),,,).+),).++++++),,,,,).++++++),,,,,,).++++++)&&=%,,,,).+++++++++),,,,,).)**)))**))),,,,,,,)>),,,,,,,,,,)******,*$$$$),,,);;;;*********),,,%,%,)**@-**),,,,)           )$),,'**** ,,,,'**& @,,)*,$%>>> *,),,,",
",,,)&********&),,,)&**)*********),,)*)&******&)*),,,)*))>>+++>>>>>>),)&&)&)&&)&)&&)>>,,,))))),,,,)@,,,,,,@),,,,))))),,,,);;;;;;;;;;;;;),,,).+),).+++++),,,,,,).+++++),,,,,,,).+++++)&&& %,,,,).+++&.++++),,,,,).))))**@-**),,,,,,,,),,,,,,,,,,,)$,*$$,$*%$%$),,,))))))))))))))),,%@@@@@)$,,$),,,,))&&)&)&&)&)&)),,, ****  ''''**&@@,,)*$$%>   $*),,,",
",,,)&********&),,,)&*)*********),,,)*)&******&)*),,,)*))>++++>>>>>>),)&&&&&&&&&&&)>>>,,,,@@@@@,,,)@,,,,,,@),,,@@@@@,,,,,);;;;;;;;;;;;;),,,).+),).++++),,,,,,,).++++),,,,,,,,).++++)&&&&=%,,,,).+++..++++),,,,,).+++))**+$),,,,,-----=-==,,,,,,,)%%%%%%%%%%%%),,,)****>>>>>>>>>),,@%@%@%)$,,$),,,,)&&)&)&&)&)&&),,,, ****  ******&@@,,)*$$%%$$$$*),,,",
",,,)&********&),,,)&)*********),,,,)*)&***$**&)*),,,)*))++++++>>>>>),,)))))))))))>>>>,,,,,,,,,,,,,@,,,,,,@,,,,,,,,,,,,,,,);;;;;;;;;;;),,,,).+),).+++),,,,,,,,).+++),,,,,,,,,).+++)&&&&&=%,,,,).+++++++++),,,,,).++++)**+$),,,,-@+++++@;;=,,,,,,)********$$$$),,,)****>>>>>>>>>),,,,,,,)**@-$*),,,)&&&&&&&&&&&),,,,, ****' &&&&&*@@%,,)*$$%> $$$*),,,",
",,,)&*********),,,))*********),,,,,)))&*,****&)*),,,))))+++++++++++),,,,,)+++++++++++,,,,,,,,,,,,,,,,,,,,,,,,,,,,,,,,,,,,);;;;;;;;;;;),,,,).+),).++),,,,,,,,,).++),,,,,,,,,,).++)=***** %,,,,).+++++++++),,,,,,)))))**@-$*),,,-++.+.++*-=,,,,,,)$$,$$$$,%$%$),,,))))))))))))))),,,,,,,)))**))),,,,))))))))))),,,,,, ****''')))@@@,,,,)*%$$  $$$$),,,",
",,,)&*******&&),,,))))))))))),,,,,,);)&****,*&)*),,,);))>>>>>>+++++),,,,,)>>>>>>+++++,,,,,,,,,,,,,,,,,,,,,,,,,,,,,,,,,,,,,);;;;;;;;;),,,,,)++),)++),,,,,,,,,,)++),,,,,,,,,,,)++), = = ==%,,,,,)))))))))),,,,,,,,,,,)))**))),,,----------=,,,,,,)*****,**$$$$),,,)**+++***+++**),,,,,,,,,,)),,,,,,,,,@,@,@,,,,,,,,,, &***',,,,,,,,,,,,)*$*$**$$**),,,",
",,,)))))))))))),,,,,,,,,,,,,,,,,,,,)))))))))))))),,,))))>>>>>>++++>),,,,,)>>>>>>++++>,,,,,,,,,,,,,,,,,,,,,,,,,,,,,,,,,,,,,,));;;;;)),,,,,,,)),,,)),,,,,,,,,,,,)),,,,,,,,,,,,,)),,,%%%%%%%,,,,,,,,,,,,,,,,,,,,,,,,,,,,,)),,,,,,,-------==,,,,,,,)))))))))))))),,,)**+++***+++**),,,,,,,,,,,,,,,,,,,#@@,;,;,,,,,,,,,, &**@@,,,,,,,,,,,,)))))))))))),,,",
",,,,,,,,,,,,,,,,,,,,,,,,,,,,,,,,,,,,,,,,,,,,,,,,,,,,,,,)>>>>>>>>+>>),,,,,)>>>>>>>>+>>,,,,,,,,,,,,,,,,,,,,,,,,,,,,,,,,,,,,,,,,))))),,,,,,,,,,,,,,,,,,,,,,,,,,,,,,,,,,,,,,,,,,,,,,,,,,,,,,,,,,,,,,,,,,,,,,,,,,,,,,,,,,,,,,,,,,,,,,,,,,,,,,,,,,,,,,,,,,,,,,,,,,,,,,))))))))))))))),,,,,,,,,,,,,,,,,,,,,,,,,,,,,,,,,,,,, @ %,,,,,,,,,,,,,,,,,,,,,,,,,,,,",
",,,,,,,,,,,,,,,,,,,,,,,,,,,,,,,,,,,,,,,,,,,,,,,,,,,,,,,))))))))))))),,,,,)))))))))))),,,,,,,,,,,,,,,,,,,,,,,,,,,,,,,,,,,,,,,,,,,,,,,,,,,,,,,,,,,,,,,,,,,,,,,,,,,,,,,,,,,,,,,,,,,,,,,,,,,,,,,,,,,,,,,,,,,,,,,,,,,,,,,,,,,,,,,,,,,,,,,,,,,,,,,,,,,,,,,,,,,,,,,,,,,,,,,,,,,,,,,,,,,,,,,,,,,,,,,,,,,,,,,,,,,,,,,,,,,,,,,,,,,,,,,,,,,,,,,,,,,,,,,,,,,,,,,"};
