/* XPM */
static char *stop_flat[]={
"17 17 3 1",
"# c #000000",
"a c #00ffff",
". c #c5c2c5",
".................",
".................",
"...##########....",
"..#aaaaaaaaaa#...",
"..#aaaaaaaaaa#...",
"..#aaaaaaaaaa#...",
"..#aaaaaaaaaa#...",
"..#aaaaaaaaaa#...",
"..#aaaaaaaaaa#...",
"..#aaaaaaaaaa#...",
"..#aaaaaaaaaa#...",
"..#aaaaaaaaaa#...",
"..#aaaaaaaaaa#...",
"...##########....",
".................",
".................",
"................."};
