/* XPM */
static char * undo_xpm[] = {
"16 17 3 1",
".	c None",
"+	c #000000",
"@	c #686C69",
"................",
"................",
"................",
"................",
"........+++.....",
"..+...++@@@+....",
"..++.+@@@...+...",
"..+++@@.....+...",
"..++++......+...",
"..+++++....+@...",
"...@@@@@...+@...",
"............@...",
"................",
"................",
"................",
"................",
"................"};
