/* XPM */
static char * patterns_xpm[] = {
"19 17 10 1",
".	c None",
"+	c #000000",
"@	c #E9EBD7",
"#	c #40494A",
"$	c #C09235",
"%	c #00FF00",
"&	c #686C69",
"*	c #A3A49B",
"=	c #DDD6A8",
"-	c #B9BF97",
"...................",
"...++++++++++++++..",
"...+@@#$#@@@$.%&+..",
"...+@.$$$.......+..",
"...+..#&#.....**+..",
"...++++++++++++++..",
"...+========----+..",
"...+--.-.--=**-*+..",
"...+======.=----+..",
"...+-.=--.-=*-*-+..",
"...+************+..",
"...+========----+..",
"...+--.----.*-*-+..",
"...+=====.==----+..",
"...++++++++++++++..",
"...................",
"..................."};
