/* XPM */
static char * playselpattern_xpm[] = {
"18 17 9 1",
".	c None",
"+	c #000000",
"@	c #67F4FF",
"#	c #0ADAE8",
"$	c #65511E",
"%	c #DDD6A8",
"&	c #40494A",
"*	c #A3A49B",
"=	c #E9EBD7",
"..................",
"....++............",
"...+@@+...........",
"...+@#@+$$$$$$$...",
"...+@##@+%%%%.&*..",
"...+@###@+====$*..",
"...+@####@+===&*..",
"...+@######+==$*..",
"...+@######+==$*..",
"...+@#####+===&*..",
"...+@####+====$*..",
"...+@###+=====$*..",
"...+@##+$%%%%%&*..",
"...+##+.&$&$&$$*..",
"....++...*******..",
"..................",
".................."};
