/* XPM */
static char * playstart_xpm[] = {
"21 21 111 2",
"  	c None",
". 	c #D4D0C8",
"+ 	c #C9C6BE",
"@ 	c #A9A6A2",
"# 	c #91908D",
"$ 	c #898887",
"% 	c #9E9D9A",
"& 	c #B7B5AE",
"* 	c #D0CDC5",
"= 	c #CAC8C2",
"- 	c #989692",
"; 	c #828281",
"> 	c #AEAEAD",
", 	c #D0CFCD",
"' 	c #DFDEDC",
") 	c #A5A4A1",
"! 	c #878683",
"~ 	c #BDBAB4",
"{ 	c #BAB7B1",
"] 	c #757573",
"^ 	c #B5B5B3",
"/ 	c #F8F7F4",
"( 	c #F5F4F1",
"_ 	c #D0D0CE",
": 	c #6C6C6C",
"< 	c #F3F2EE",
"[ 	c #F1F0EC",
"} 	c #8E8D8B",
"| 	c #C6C3BC",
"1 	c #EEEDE8",
"2 	c #F0EFEB",
"3 	c #9A9996",
"4 	c #B5B2AE",
"5 	c #EBE9E3",
"6 	c #E9E7E2",
"7 	c #ECEAE6",
"8 	c #EFEDE6",
"9 	c #EAE7E0",
"0 	c #E6E4DB",
"a 	c #E5E3DB",
"b 	c #E7E4DE",
"c 	c #D7D5D0",
"d 	c #959391",
"e 	c #ABAAA5",
"f 	c #E9E6DC",
"g 	c #E4E1D7",
"h 	c #DFDCD3",
"i 	c #2F3A45",
"j 	c #E1DFD6",
"k 	c #DAD6CD",
"l 	c #D7D2C8",
"m 	c #3A4755",
"n 	c #43505F",
"o 	c #28313B",
"p 	c #E3E1D9",
"q 	c #D1CEC2",
"r 	c #D8D4C9",
"s 	c #D0CBC1",
"t 	c #CBC7BC",
"u 	c #4F5C69",
"v 	c #7E7D7C",
"w 	c #C7C4B8",
"x 	c #C2BDB3",
"y 	c #BFBBB1",
"z 	c #566778",
"A 	c #C1BEB8",
"B 	c #D5D0C6",
"C 	c #D8D4CA",
"D 	c #CECABF",
"E 	c #C5C1B7",
"F 	c #BDB9AF",
"G 	c #5F758C",
"H 	c #B8B4AB",
"I 	c #A4A395",
"J 	c #B5B2AA",
"K 	c #B1AEA8",
"L 	c #6C86A0",
"M 	c #AEACA1",
"N 	c #86847E",
"O 	c #9F9C96",
"P 	c #ABA8A1",
"Q 	c #98968E",
"R 	c #CAC5BA",
"S 	c #BAB7AC",
"T 	c #ACA8A2",
"U 	c #A9A69D",
"V 	c #6C747A",
"W 	c #A19E97",
"X 	c #9F9C92",
"Y 	c #9D9A95",
"Z 	c #9C9A92",
"` 	c #9A9991",
" .	c #97958E",
"..	c #949289",
"+.	c #96958A",
"@.	c #B5B4A4",
"#.	c #94928D",
"$.	c #918F8A",
"%.	c #8F8E86",
"&.	c #8C8B85",
"*.	c #8B8983",
"=.	c #787776",
"-.	c #939289",
";.	c #88887F",
">.	c #9B9A8C",
",.	c #B0AE9C",
"'.	c #A9A899",
").	c #919084",
"!.	c #A0A090",
"~.	c #939386",
"{.	c #797A7A",
". . . . . . + @ # $ $ $ % & * . . . . . . ",
". . . . = - ; > , ' ' ' = ) ! ~ . . . . . ",
". . . { ] ^ / ( ( ( ( / / / _ % % * . . . ",
". . { : = < < [ [ < < < ( ( / / ^ } * . . ",
". | ] = [ 1 1 1 1 1 1 2 < < ( ( / ^ 3 . . ",
". # 4 1 5 6 6 6 5 5 7 1 1 2 [ < ( / ) { . ",
"| ; 8 9 0 a a a 0 b 9 9 5 7 8 2 [ ( c d . ",
") e f g h h h i i j ; d j b 9 5 8 2 < } + ",
"} + h k l l l m m k n o : ~ j p b 9 8 e 4 ",
"; q r s t t + u n s u i o i v | h j b 4 e ",
"v q s w x x y z z A u m i o o n B C h { ) ",
"; w D E y F F G G H z n i i u I E s C e e ",
"} & t y H J K L G M z n u N M K H x s O & ",
"P Q R S K T P G G U V V Q W X I P S w v * ",
"+ : x H P W O Y Z ` ` Q  ...+.Q I @.U - . ",
". 3 +.S U Z #.$.%.&.&.*.*.*.%.+.I @.=.| . ",
". * =.+.M Z -.*.;.N N N N ;.%.>.,.Q ) . . ",
". . | ] -.'.>.%.;.N v N ;.).>.!.%.3 . . . ",
". . . + v ;.!.!.+.).).).+.!.~.{.4 . . . . ",
". . . . . @ ] ] ;.).).).;.] # = . . . . . ",
". . . . . . . A @ d d O K = . . . . . . . "};
