/* XPM */
static char * play_xpm[] = {
"21 21 115 2",
"  	c None",
". 	c #D4D0C8",
"+ 	c #C9C6BE",
"@ 	c #A9A6A2",
"# 	c #91908D",
"$ 	c #898887",
"% 	c #9E9D9A",
"& 	c #B7B5AE",
"* 	c #D0CDC5",
"= 	c #CAC8C2",
"- 	c #989692",
"; 	c #828281",
"> 	c #AEAEAD",
", 	c #D0CFCD",
"' 	c #DFDEDC",
") 	c #A5A4A1",
"! 	c #878683",
"~ 	c #BDBAB4",
"{ 	c #BAB7B1",
"] 	c #757573",
"^ 	c #B5B5B3",
"/ 	c #F5F4F1",
"( 	c #F8F7F4",
"_ 	c #D0D0CE",
": 	c #6C6C6C",
"< 	c #F3F2EE",
"[ 	c #F1F0EC",
"} 	c #F0EFEB",
"| 	c #8E8D8B",
"1 	c #C6C3BC",
"2 	c #EEEDE8",
"3 	c #ECEAE6",
"4 	c #EBEAE6",
"5 	c #9A9996",
"6 	c #B5B2AE",
"7 	c #EBE9E3",
"8 	c #E9E7E2",
"9 	c #E8E5E0",
"0 	c #E7E4DE",
"a 	c #EFEDE6",
"b 	c #EAE7E0",
"c 	c #E6E4DB",
"d 	c #E3E1D9",
"e 	c #E5E3DB",
"f 	c #EDEAE2",
"g 	c #D2D0CB",
"h 	c #959391",
"i 	c #ABAAA5",
"j 	c #E9E6DC",
"k 	c #E1DFD6",
"l 	c #DFDCD3",
"m 	c #DCD9CF",
"n 	c #8D8F8F",
"o 	c #DAD6CD",
"p 	c #E4E1D7",
"q 	c #D6D1C8",
"r 	c #D5D0C6",
"s 	c #3A4755",
"t 	c #2F3A45",
"u 	c #4F5C69",
"v 	c #B3B1AB",
"w 	c #D8D4CA",
"x 	c #D1CEC2",
"y 	c #D7D2C8",
"z 	c #D0CBC1",
"A 	c #CBC7BC",
"B 	c #CAC5BA",
"C 	c #28313B",
"D 	c #797A7A",
"E 	c #CECABF",
"F 	c #B1AEA8",
"G 	c #7E7D7C",
"H 	c #C7C4B8",
"I 	c #C2BDB3",
"J 	c #43505F",
"K 	c #BFBBB1",
"L 	c #B5B2AA",
"M 	c #C5C1B7",
"N 	c #566778",
"O 	c #9F9C92",
"P 	c #BAB7AC",
"Q 	c #8B8983",
"R 	c #B5B4A4",
"S 	c #B8B4AB",
"T 	c #ABA8A1",
"U 	c #98968E",
"V 	c #ADAAA5",
"W 	c #ACA8A2",
"X 	c #6C747A",
"Y 	c #A19E97",
"Z 	c #A9A69D",
"` 	c #A3A09A",
" .	c #9F9C96",
"..	c #9D9A95",
"+.	c #AEACA1",
"@.	c #BDB9AF",
"#.	c #96958A",
"$.	c #97958E",
"%.	c #939289",
"&.	c #918F8A",
"*.	c #94928D",
"=.	c #787776",
"-.	c #949289",
";.	c #8C8B85",
">.	c #86847E",
",.	c #8F8E86",
"'.	c #A4A395",
").	c #9A9991",
"!.	c #939386",
"~.	c #A9A899",
"{.	c #9B9A8C",
"].	c #88887F",
"^.	c #A0A090",
"/.	c #919084",
"(.	c #C1BEB8",
". . . . . . + @ # $ $ $ % & * . . . . . . ",
". . . . = - ; > , ' ' ' = ) ! ~ . . . . . ",
". . . { ] ^ / / / / / / / ( _ % % * . . . ",
". . { : = < [ } } } } [ [ < < / ^ | * . . ",
". 1 ] = } 2 3 4 3 4 4 3 2 2 2 } < ^ 5 . . ",
". # 6 2 7 8 9 0 9 9 9 8 8 8 7 3 2 [ ) { . ",
"1 ; a b c d d d d d e e e e c 0 b f g h . ",
") i j k l m m m ; n o l l l l k p c f n = ",
"| + l o q r r r s t u v w w w w o l p i { ",
"; x y z A B B B u t C t D { E E z r m v F ",
"G x z H I I I I u s t C C J K I I B x L i ",
"; H E M K K K K N J t t u O P P K M x i F ",
"| & A K & L L L N J u Q R F F L S I E % { ",
"T U B P F V W V X X Y T @ Z Z T F K A ; * ",
"+ : I S T ` Y  . . . ....... .` +.@.T - . ",
". 5 #.P Z ..$.%.&.&.&.&.&.*.U Y +.P D 1 . ",
". * =.U +.O -.;.! ! >.>.Q ,.$.'.R ).) . . ",
". . 1 ] !.~.{.,.].>.>.].Q -.O '.,.5 . . . ",
". . . + G ].^.^.#.!./.!.{.'.#.D 6 . . . . ",
". . . . . @ ] ] ].!.!./.].] # = . . . . . ",
". . . . . . . (.@ h h % F = . . . . . . . "};
