/* XPM */
static char * redo_xpm[] = {
"18 17 3 1",
".	c None",
"+	c #000000",
"@	c #686C69",
"..................",
"..................",
"..................",
"..................",
"......+++.........",
".....+@@@++...+...",
"....+...@@@+.++...",
"....+.....@@+++...",
"....+......++++...",
"....@+....+++++...",
"....@+...@@@@@....",
"....@.............",
"..................",
"..................",
"..................",
"..................",
".................."};
