/* XPM */
static char * save_xpm[] = {
"16 17 10 1",
".	c None",
"+	c #000000",
"@	c #686C69",
"#	c #DDD6A8",
"$	c #E9EBD7",
"%	c #A3A49B",
"&	c #40494A",
"*	c #2C2C2C",
"=	c #B9BF97",
"-	c #D50606",
"................",
".+++++@@@@@@++..",
".+#+#$@%@@#&##+.",
".+#+##@@@@#&$#+.",
".+#+#$@@@&#&##+.",
".+#+++@@&&&*##+.",
".+############+.",
".+##++++++++##+.",
".+#+$$$$$$$$+#+.",
".+#+$######$+#+.",
".+#+$######$+#+.",
".+#+$###=##$+#+.",
".+++$#.####$+#+.",
".+-+$####.#$+#+.",
".++++++++++++++.",
"................",
"................"};
