/* XPM */
static char * sequencer_xpm[] = {
"17 17 7 1",
".	c None",
"+	c #000000",
"@	c #DDD6A8",
"#	c #C09235",
"$	c #D50606",
"%	c #FDFDFD",
"&	c #0ADAE8",
".................",
".+++++++++++++++.",
".+@@+@@+@@+@@+@+.",
".+++++++++++++++.",
".+@@@@@@@@####@+.",
".+@@@@@@@@####@+.",
".+++++++++++++++.",
".+$$$$@@@@@@@@@+.",
".+$$$$@@@@@@@@@+.",
".+++++++++++++++.",
".+@@@@%%%%%%%%%+.",
".+@@@@%%%%%%%%%+.",
".+++++++++++++++.",
".+@@&&&@@@&&&@@+.",
".+@@&&&@@@&&&@@+.",
".+++++++++++++++.",
"................."};
