/* XPM */
static char * stop_xpm[] = {
"21 21 117 2",
"  	c None",
". 	c #D4D0C8",
"+ 	c #C9C6BE",
"@ 	c #A9A6A2",
"# 	c #91908D",
"$ 	c #898887",
"% 	c #9E9D9A",
"& 	c #B7B5AE",
"* 	c #D0CDC5",
"= 	c #CAC8C2",
"- 	c #989692",
"; 	c #828281",
"> 	c #AEAEAD",
", 	c #D0CFCD",
"' 	c #DFDEDC",
") 	c #A5A4A1",
"! 	c #878683",
"~ 	c #BDBAB4",
"{ 	c #BAB7B1",
"] 	c #757573",
"^ 	c #B5B5B3",
"/ 	c #F5F4F1",
"( 	c #F8F7F4",
"_ 	c #D0D0CE",
": 	c #6C6C6C",
"< 	c #F3F2EE",
"[ 	c #F1F0EC",
"} 	c #F0EFEB",
"| 	c #8E8D8B",
"1 	c #C6C3BC",
"2 	c #EEEDE8",
"3 	c #ECEAE6",
"4 	c #EBEAE6",
"5 	c #9A9996",
"6 	c #B5B2AE",
"7 	c #EBE9E3",
"8 	c #E9E7E2",
"9 	c #E8E5E0",
"0 	c #E7E4DE",
"a 	c #EFEDE6",
"b 	c #EAE7E0",
"c 	c #E6E4DB",
"d 	c #E3E1D9",
"e 	c #E5E3DB",
"f 	c #EDEAE2",
"g 	c #D2D0CB",
"h 	c #959391",
"i 	c #ABAAA5",
"j 	c #E9E6DC",
"k 	c #E1DFD6",
"l 	c #DFDCD3",
"m 	c #DCD9CF",
"n 	c #3A4755",
"o 	c #2F3A45",
"p 	c #28313B",
"q 	c #E4E1D7",
"r 	c #8D8F8F",
"s 	c #DAD6CD",
"t 	c #D6D1C8",
"u 	c #D5D0C6",
"v 	c #4F5C69",
"w 	c #43505F",
"x 	c #D8D4CA",
"y 	c #D1CEC2",
"z 	c #D7D2C8",
"A 	c #D0CBC1",
"B 	c #CBC7BC",
"C 	c #CAC5BA",
"D 	c #5F758C",
"E 	c #566778",
"F 	c #CECABF",
"G 	c #B3B1AB",
"H 	c #B1AEA8",
"I 	c #7E7D7C",
"J 	c #C7C4B8",
"K 	c #C2BDB3",
"L 	c #6C86A0",
"M 	c #BFBBB1",
"N 	c #B5B2AA",
"O 	c #C5C1B7",
"P 	c #7996B3",
"Q 	c #BAB7AC",
"R 	c #B8B4AB",
"S 	c #ABA8A1",
"T 	c #98968E",
"U 	c #ADAAA5",
"V 	c #ACA8A2",
"W 	c #A3A09A",
"X 	c #A19E97",
"Y 	c #9F9C96",
"Z 	c #9D9A95",
"` 	c #AEACA1",
" .	c #BDB9AF",
"..	c #96958A",
"+.	c #A9A69D",
"@.	c #97958E",
"#.	c #939289",
"$.	c #918F8A",
"%.	c #94928D",
"&.	c #797A7A",
"*.	c #787776",
"=.	c #9F9C92",
"-.	c #949289",
";.	c #8C8B85",
">.	c #86847E",
",.	c #8B8983",
"'.	c #8F8E86",
").	c #A4A395",
"!.	c #B5B4A4",
"~.	c #9A9991",
"{.	c #939386",
"].	c #A9A899",
"^.	c #9B9A8C",
"/.	c #88887F",
"(.	c #A0A090",
"_.	c #919084",
":.	c #C1BEB8",
". . . . . . + @ # $ $ $ % & * . . . . . . ",
". . . . = - ; > , ' ' ' = ) ! ~ . . . . . ",
". . . { ] ^ / / / / / / / ( _ % % * . . . ",
". . { : = < [ } } } } [ [ < < / ^ | * . . ",
". 1 ] = } 2 3 4 3 4 4 3 2 2 2 } < ^ 5 . . ",
". # 6 2 7 8 9 0 9 9 9 8 8 8 7 3 2 [ ) { . ",
"1 ; a b c d d d d d e e e e c 0 b f g h . ",
") i j k l m m n n o o p p p l k q c f r = ",
"| + l s t u . v w w n o p p x x s l q i { ",
"; y z A B C C D E v w o o p F F A u m G H ",
"I y A J K K K L D E w n o p M K K C y N i ",
"; J F O M M M P L D v n o p Q Q M O y i H ",
"| & B M & N N P L D v n o p H N R K F % { ",
"S T C Q H U V P L D v n o p @ S H M B ; * ",
"+ : K R S W X Y Y Y 5 % Y Z Y W `  .S - . ",
". 5 ..Q +.Z @.#.$.$.$.$.$.%.T X ` Q &.1 . ",
". * *.T ` =.-.;.! ! >.>.,.'.@.).!.~.) . . ",
". . 1 ] {.].^.'./.>.>./.,.-.=.).'.5 . . . ",
". . . + I /.(.(...{._.{.^.)...&.6 . . . . ",
". . . . . @ ] ] /.{.{._./.] # = . . . . . ",
". . . . . . . :.@ h h % H = . . . . . . . "};
