/* XPM */
static char * stop_xpm[] = {
"15 17 6 1",
".	c None",
"+	c #000000",
"@	c #67F4FF",
"#	c #0ADAE8",
"$	c #FDFDFD",
"%	c #E9EBD7",
"...............",
"...............",
"...++++++++++..",
"..+@@@@@@@@@@+.",
"..+@#########+.",
"..+@###@@####+.",
"..+@###$@####+.",
"..+@###@@####+.",
"..+@#########+.",
"..+@###%@####+.",
"..+@###@@####+.",
"..+@#########+.",
"..+@#########+.",
"...++++++++++..",
"...............",
"...............",
"..............."};
